<?xml version="1.0" encoding="UTF-8" standalone="no"?>
<svg
   width="1024"
   height="1024"
   version="1.1"
   viewBox="0 0 1024 1024"
   xml:space="preserve"
   id="svg191"
   sodipodi:docname="launch_icon.svg"
   inkscape:version="1.2 (dc2aedaf03, 2022-05-15)"
   xmlns:inkscape="http://www.inkscape.org/namespaces/inkscape"
   xmlns:sodipodi="http://sodipodi.sourceforge.net/DTD/sodipodi-0.dtd"
   xmlns:xlink="http://www.w3.org/1999/xlink"
   xmlns="http://www.w3.org/2000/svg"
   xmlns:svg="http://www.w3.org/2000/svg"><rect
     x="0"
     y="0"
     width="1024"
     height="1024"
     fill="url(#radialGradient2038)"
     stop-color="#000000"
     stroke-width="2.87613"
     id="rect73"
     style="display:inline;fill:#411b6d;fill-opacity:1" /><g
     id="g3683"
     transform="translate(2.0000027,-1.9999777)"><g
       transform="matrix(1.1090433,0,0,1.098388,-56.403304,-22.956657)"
       id="g187"><path
         d="m 512,544 -64.3,13.4 c 0,0 19.1,129 64.3,190 2.1e-4,2.9e-4 0.002,-3e-4 0.002,0 45.2,-60.9 64.3,-190 64.3,-190 l -64.3,-13.4 z"
         fill="#ba1a1a"
         stop-color="#000000"
         style="font-variation-settings:normal;fill:url(#linearGradient5570);fill-opacity:1"
         id="path181" /><path
         d="m 512,231 c 0,0 -5.88,4.57 -14.7,13.4 -6.61,6.61 -14.9,15.6 -23.6,26.8 -21.7,28.1 -46,70.1 -53.5,124 -0.499,3.59 -0.924,7.23 -1.27,10.9 -0.689,7.38 -1.06,15 -1.06,22.8 0,0 0.0448,2.37 0.168,6.05 0.0381,1.18 0.0934,1.93 0.16,3.5 0.159,3.88 0.464,8.73 0.89,14.7 0.2,2.81 0.381,5.27 0.66,8.46 1.43,16.6 3.97,37.8 8.66,60.9 10e-4,0.007 0.002,0.0142 0.004,0.0215 -2.44,2.39 -38.1,43 -38.4,53.6 v 88.5 c 0,0 -1.77,12.7 8.48,1.77 10.25,-10.93 51.2,-52 51.2,-52 0,0 4.82,-5.78 13.8,-6.02 h 96.7 c 9.02,0.234 13.8,6.02 13.8,6.02 0,0 41,41 51.2,52 10.2,11 8.48,-1.77 8.48,-1.77 v -88.5 c -0.341,-10.6 -36,-51.2 -38.4,-53.6 10e-4,-0.007 0.002,-0.0144 0.004,-0.0215 4.69,-23.1 7.22,-44.3 8.66,-60.9 0.279,-3.19 0.46,-5.66 0.66,-8.46 0.426,-6.02 0.731,-10.9 0.89,-14.7 0.0667,-1.56 0.122,-2.32 0.16,-3.5 0.123,-3.68 0.168,-6.05 0.168,-6.05 0,-11.7 -0.826,-22.9 -2.32,-33.7 -5.49,-39.5 -20,-72.6 -35.9,-98.6 -14.5,-23.6 -30.1,-41.2 -41.1,-52.2 -2.2,-2.2 -4.22,-4.14 -6.01,-5.81 h -0.002 c -1.79,-1.67 -3.35,-3.06 -4.64,-4.19 h -0.002 c -2.57,-2.24 -4.04,-3.39 -4.04,-3.39 z m -0.0215,99.6 c 24.9,1.3e-4 45.1,20.2 45.1,45.2 -1.2e-4,25 -20.2,45.2 -45.1,45.2 -24.9,-1.2e-4 -45.1,-20.2 -45.1,-45.2 1.2e-4,-25 20.2,-45.2 45.1,-45.2 z"
         fill="url(#linearGradient2947)"
         id="path183"
         style="fill:url(#linearGradient2947)" /><path
         d="m 512,230 c 0,0 -94,73.2 -94,198 0,0 0.0568,2.72 0.234,7.09 0.137,3.59 0.346,7.62 0.787,14 0.182,2.64 0.401,5.38 0.656,8.42 0.102,1.21 0.172,2.25 0.287,3.52 0.41,4.55 0.907,9.45 1.51,14.7 0.141,1.22 0.328,2.54 0.48,3.8 0.496,4.09 1.04,8.27 1.67,12.7 0.285,1.98 0.608,3.99 0.923,6.02 0.355,2.29 0.655,4.5 1.05,6.85 0.32,1.9 0.716,3.89 1.06,5.83 0.411,2.29 0.806,4.55 1.26,6.88 0.218,1.13 0.436,2.25 0.664,3.38 0.897,4.47 1.84,8.97 2.9,13.5 1.16,5.02 2.47,10.1 3.84,15.1 0.518,1.91 1.04,3.82 1.59,5.73 0.304,1.06 0.602,2.11 0.915,3.16 1.01,3.4 2.06,6.79 3.17,10.2 0.0144,0.0434 0.0266,0.0875 0.041,0.131 0.0139,0.0419 0.0291,0.0832 0.043,0.125 1.11,3.36 2.3,6.69 3.52,10 0.143,0.387 0.267,0.783 0.412,1.17 0.413,1.1 0.857,2.19 1.28,3.29 0.403,1.04 0.798,2.08 1.21,3.11 0.694,1.73 1.42,3.43 2.14,5.14 0.382,0.896 0.749,1.8 1.14,2.69 0.0688,0.156 0.132,0.317 0.201,0.473 1.06,2.4 2.16,4.78 3.29,7.13 1.13,2.35 2.3,4.71 3.51,7 6.5e-4,-2e-5 10e-4,2e-5 0.002,0 0.244,-0.007 0.488,-0.0129 0.732,-0.0195 17.8,-0.486 35.7,-1.05 53.5,-1.19 10e-4,-10e-6 0.003,1e-5 0.004,0 17.8,0.143 35.7,0.705 53.5,1.19 0.244,0.007 0.488,0.0129 0.732,0.0195 6.5e-4,2e-5 10e-4,-2e-5 0.002,0 1.21,-2.29 2.37,-4.65 3.51,-7 1.13,-2.35 2.23,-4.73 3.29,-7.13 0.069,-0.156 0.132,-0.317 0.201,-0.473 0.391,-0.889 0.758,-1.79 1.14,-2.69 0.727,-1.7 1.45,-3.41 2.14,-5.14 0.414,-1.03 0.809,-2.07 1.21,-3.11 0.426,-1.1 0.869,-2.18 1.28,-3.29 0.145,-0.386 0.269,-0.782 0.412,-1.17 1.22,-3.31 2.41,-6.64 3.52,-10 0.0283,-0.0853 0.0557,-0.171 0.0839,-0.256 1.12,-3.37 2.16,-6.76 3.17,-10.2 0.316,-1.06 0.617,-2.13 0.923,-3.19 0.542,-1.88 1.05,-3.76 1.56,-5.64 1.38,-5.08 2.69,-10.2 3.86,-15.2 1.06,-4.56 2,-9.06 2.9,-13.5 0.228,-1.13 0.445,-2.25 0.664,-3.38 0.451,-2.33 0.846,-4.59 1.26,-6.88 0.347,-1.94 0.744,-3.92 1.06,-5.83 0.395,-2.35 0.695,-4.56 1.05,-6.85 0.315,-2.03 0.638,-4.04 0.923,-6.02 0.63,-4.38 1.18,-8.57 1.67,-12.7 0.152,-1.26 0.339,-2.58 0.48,-3.8 0.6,-5.21 1.1,-10.1 1.51,-14.7 0.115,-1.27 0.185,-2.31 0.287,-3.52 0.255,-3.04 0.474,-5.78 0.656,-8.42 0.44,-6.37 0.65,-10.4 0.787,-14 0.177,-4.37 0.234,-7.09 0.234,-7.09 0,-125 -94,-198 -94,-198 z m 0,100 c 24.9,1.3e-4 45.1,20.2 45.1,45.2 -1.1e-4,25 -20.2,45.2 -45.1,45.2 -24.9,-1.2e-4 -45.1,-20.2 -45.1,-45.2 1.1e-4,-25 20.2,-45.2 45.1,-45.2 z"
         fill="url(#linearGradient1487)"
         id="path185"
         style="fill:url(#linearGradient1487)" /></g></g><sodipodi:namedview
     id="namedview193"
     pagecolor="#505050"
     bordercolor="#ffffff"
     borderopacity="1"
     inkscape:showpageshadow="0"
     inkscape:pageopacity="0"
     inkscape:pagecheckerboard="1"
     inkscape:deskcolor="#505050"
     showgrid="false"
     showguides="true"
     inkscape:zoom="0.32"
     inkscape:cx="598.4375"
     inkscape:cy="398.4375"
     inkscape:window-width="1920"
     inkscape:window-height="991"
     inkscape:window-x="-9"
     inkscape:window-y="-9"
     inkscape:window-maximized="1"
     inkscape:current-layer="g3683"><sodipodi:guide
       position="512,512"
       orientation="-1,0"
       id="guide563"
       inkscape:locked="false"
       inkscape:label=""
       inkscape:color="rgb(0,134,229)" /><sodipodi:guide
       position="512,512"
       orientation="0,1"
       id="guide565"
       inkscape:locked="false"
       inkscape:label=""
       inkscape:color="rgb(0,134,229)" /></sodipodi:namedview><defs
     id="defs71"><linearGradient
       id="linearGradient3951"
       inkscape:swatch="solid"><stop
         style="stop-color:#ffffff;stop-opacity:1;"
         offset="0"
         id="stop3949" /></linearGradient><linearGradient
       id="linearGradient20389"><stop
         stop-color="#365bac"
         offset="0"
         id="stop20383"
         style="stop-color:#52dbcb;stop-opacity:1;" /><stop
         stop-color="#724c9f"
         offset=".5"
         id="stop20385" /><stop
         stop-color="#365bac"
         offset="1"
         id="stop20387"
         style="stop-color:#52dbcb;stop-opacity:1;" /></linearGradient><linearGradient
       id="linearGradient16001"><stop
         stop-color="#365bac"
         offset="0.5"
         id="stop15997"
         style="stop-color:#411b6d;stop-opacity:1;" /><stop
         stop-color="#006a61"
         offset="1"
         id="stop15999"
         style="stop-color:#dab9ff;stop-opacity:1;" /></linearGradient><linearGradient
       id="linearGradient7083"><stop
         stop-color="#365bac"
         offset="0.5"
         id="stop7079"
         style="stop-color:#ffffff;stop-opacity:1;" /><stop
         stop-color="#006a61"
         offset="1"
         id="stop7081"
         style="stop-color:#b1c5ff;stop-opacity:1;" /></linearGradient><linearGradient
       inkscape:collect="always"
       id="linearGradient5568"><stop
         style="stop-color:#ba1a1a;stop-opacity:1;"
         offset="0.5"
         id="stop5564" /><stop
         style="stop-color:#690005;stop-opacity:1;"
         offset="1"
         id="stop5566" /></linearGradient><linearGradient
       id="linearGradient3372"><stop
         stop-color="#365bac"
         offset="0"
         id="stop3366"
         style="stop-color:#dab9ff;stop-opacity:1;" /><stop
         stop-color="#724c9f"
         offset="0.5"
         id="stop3368"
         style="stop-color:#593485;stop-opacity:1;" /><stop
         stop-color="#365bac"
         offset="1"
         id="stop3370"
         style="stop-color:#dab9ff;stop-opacity:1;" /></linearGradient><linearGradient
       id="linearGradient2945"><stop
         stop-color="#365bac"
         offset="0"
         id="stop2" /><stop
         stop-color="#724c9f"
         offset=".5"
         id="stop4" /><stop
         stop-color="#365bac"
         offset="1"
         id="stop6" /></linearGradient><linearGradient
       id="linearGradient1485"><stop
         stop-color="#365bac"
         offset="0.5"
         id="stop9"
         style="stop-color:#003732;stop-opacity:1;" /><stop
         stop-color="#006a61"
         offset="1"
         id="stop11"
         style="stop-color:#006a61;stop-opacity:1;" /></linearGradient><linearGradient
       id="linearGradient1487"
       x1="415"
       x2="603"
       y1="439"
       y2="439"
       gradientTransform="matrix(0.999,0,0,1,3.04,-20.2)"
       gradientUnits="userSpaceOnUse"
       xlink:href="#linearGradient7083" /><linearGradient
       id="linearGradient2947"
       x1="387"
       x2="631"
       y1="470"
       y2="470"
       gradientTransform="matrix(0.999,0,0,1,3.04,-20.2)"
       gradientUnits="userSpaceOnUse"
       xlink:href="#linearGradient3372" /><linearGradient
       id="linearGradient1204"
       x1="387"
       x2="631"
       y1="470"
       y2="470"
       gradientTransform="translate(149,-2.51)"
       gradientUnits="userSpaceOnUse"
       xlink:href="#linearGradient20389" /><linearGradient
       id="linearGradient1206"
       x1="415"
       x2="603"
       y1="439"
       y2="439"
       gradientTransform="translate(149,-2.51)"
       gradientUnits="userSpaceOnUse"
       xlink:href="#linearGradient1485" /><radialGradient
       id="radialGradient2038"
       cx="390"
       cy="495"
       r="724"
       gradientTransform="matrix(0.70718234,0,0,0.70750379,236.1989,161.59046)"
       gradientUnits="userSpaceOnUse"><stop
         stop-color="#dab9ff"
         offset="0"
         id="stop21243"
         style="stop-color:#52dbcb;stop-opacity:1;" /><stop
         stop-color="#dab9ff"
         offset="0.5"
         id="stop18"
         style="stop-color:#411b6d;stop-opacity:1;" /></radialGradient><clipPath
       id="clipPath4465"><path
         d="m0 807h712v-807h-712z"
         id="path23" /></clipPath><clipPath
       id="clipPath4473"><path
         d="m164 548h384v-384h-384z"
         id="path26" /></clipPath><clipPath
       id="clipPath4477"><path
         d="m164 548h384v-384h-384z"
         id="path29" /></clipPath><mask
       id="mask4479"
       x="0"
       y="0"
       width="1"
       height="1"
       maskUnits="userSpaceOnUse"><g
         clip-path="url(#clipPath4473)"
         id="g38"><path
           d="m164 548h384v-384h-384z"
           id="path32" /><g
           clip-path="url(#clipPath4477)"
           id="g36"><path
             d="m99.9 612h513v-513h-513z"
             fill="#fff"
             id="path34" /></g></g></mask><clipPath
       id="clipPath4503"><path
         d="m164 548h384v-384h-384z"
         id="path41" /></clipPath><clipPath
       id="clipPath4507"><path
         d="m164 548h384v-384h-384z"
         id="path44" /></clipPath><clipPath
       id="clipPath4511"><path
         d="m164 548h384v-384h-384z"
         id="path47" /></clipPath><clipPath
       id="clipPath4515"><path
         d="m164 548h384v-384h-384z"
         id="path50" /></clipPath><clipPath
       id="clipPath4519"><path
         d="m300 548h0.5v-384h-0.5z"
         id="path53" /></clipPath><clipPath
       id="clipPath4523"><path
         d="m356 548h0.5v-384h-0.5z"
         id="path56" /></clipPath><clipPath
       id="clipPath4527"><path
         d="m412 548h0.5v-384h-0.5z"
         id="path59" /></clipPath><clipPath
       id="clipPath4531"><path
         d="m164 412h384v-0.2h-384z"
         id="path62" /></clipPath><clipPath
       id="clipPath4535"><path
         d="m164 356h384v-0.2h-384z"
         id="path65" /></clipPath><clipPath
       id="clipPath4539"><path
         d="m164 300h384v-0.5h-384z"
         id="path68" /></clipPath><linearGradient
       inkscape:collect="always"
       xlink:href="#linearGradient5568"
       id="linearGradient5570"
       x1="447.7"
       y1="645.70004"
       x2="576.302"
       y2="645.70004"
       gradientUnits="userSpaceOnUse" /></defs></svg>
