<?xml version="1.0" encoding="UTF-8" standalone="no"?>
<svg
   width="1024"
   height="1024"
   version="1.1"
   viewBox="0 0 1024 1024"
   xml:space="preserve"
   id="svg191"
   sodipodi:docname="launch_icon.svg"
   inkscape:version="1.2 (dc2aedaf03, 2022-05-15)"
   xmlns:inkscape="http://www.inkscape.org/namespaces/inkscape"
   xmlns:sodipodi="http://sodipodi.sourceforge.net/DTD/sodipodi-0.dtd"
   xmlns:xlink="http://www.w3.org/1999/xlink"
   xmlns="http://www.w3.org/2000/svg"
   xmlns:svg="http://www.w3.org/2000/svg"><rect
     x="0"
     y="0"
     width="1024"
     height="1024"
     fill="url(#radialGradient2038)"
     stop-color="#000000"
     stroke-width="2.87613"
     id="rect73"
     style="display:inline;fill:url(#radialGradient2038)" /><g
     id="g3683"
     transform="translate(2.0000027,-1.9999777)"><g
       transform="matrix(0.61479645,0,0,0.61279207,-116.61556,113.5427)"
       id="g167"
       style="opacity:0.4"><path
         d="m 658,239 c -2.7,1.62 -5.17,3.71 -7.52,5.84 -2.48,2.02 -4.96,4.2 -7.2,6.57 -2.47,2.32 -4.87,4.69 -7.24,7.12 -1.08,1.11 -2.12,2.25 -3.18,3.37 -1.23,1.3 -2.47,2.59 -3.68,3.91 -0.0771,0.0843 -0.155,0.168 -0.233,0.252 -9.4e-4,10e-4 -10e-4,0.003 -0.002,0.004 -0.922,1.01 -1.87,2 -2.77,3.02 -0.006,0.006 -0.0101,0.0133 -0.0156,0.0195 -0.004,0.005 -0.009,0.009 -0.0137,0.0137 -1.58,1.78 -3.12,3.6 -4.65,5.43 -0.003,0.004 -0.006,0.008 -0.01,0.0117 -0.004,0.005 -0.008,0.009 -0.0117,0.0137 -1.08,1.28 -2.16,2.56 -3.22,3.85 -1.41,1.73 -2.79,3.47 -4.16,5.23 -0.004,0.005 -0.008,0.0105 -0.0117,0.0156 -0.112,0.144 -0.221,0.289 -0.332,0.433 -0.914,1.18 -1.82,2.36 -2.71,3.55 -0.0126,0.0168 -0.0245,0.034 -0.0371,0.0507 -0.942,1.25 -1.92,2.46 -2.85,3.72 -0.498,0.683 -0.956,1.39 -1.45,2.08 -0.641,0.897 -1.25,1.81 -1.88,2.72 -0.0148,0.0212 -0.0282,0.0432 -0.043,0.0644 -0.0307,0.0442 -0.0611,0.0886 -0.0919,0.133 -1.22,1.75 -2.35,3.55 -3.53,5.33 -1.36,2.05 -2.77,4.07 -4.08,6.16 -2.46,3.91 -4.82,7.88 -7.09,11.9 -0.387,0.687 -0.78,1.37 -1.16,2.06 -7.1e-4,10e-4 -10e-4,0.003 -0.002,0.004 -0.0517,0.0936 -0.0989,0.189 -0.15,0.283 -1.37,2.49 -2.71,5.01 -4.01,7.54 -0.163,0.319 -0.342,0.631 -0.504,0.95 -0.237,0.467 -0.447,0.946 -0.682,1.41 -1.34,2.68 -2.65,5.37 -3.9,8.09 -0.007,0.0159 -0.0162,0.031 -0.0235,0.0468 -0.221,0.481 -0.425,0.969 -0.643,1.45 -0.009,0.0205 -0.0162,0.042 -0.0254,0.0624 -0.0247,0.0554 -0.0494,0.111 -0.0743,0.166 -0.901,2 -1.68,4.04 -2.53,6.06 -1.1,2.6 -2.25,5.18 -3.26,7.81 -7.4e-4,0.002 -10e-4,0.004 -0.002,0.006 -1.8,4.68 -3.47,9.41 -4.99,14.2 -0.006,0.0202 -0.0131,0.0403 -0.0195,0.0605 -0.135,0.423 -0.279,0.844 -0.412,1.27 -0.002,0.006 -0.004,0.0117 -0.006,0.0176 -0.942,3 -1.82,6.01 -2.65,9.05 -0.203,0.742 -0.399,1.49 -0.596,2.23 -0.495,1.88 -1.05,3.74 -1.5,5.63 -0.231,0.966 -0.384,1.95 -0.604,2.92 -0.491,2.16 -0.911,4.33 -1.34,6.5 -0.002,0.009 -0.002,0.0183 -0.004,0.0273 -0.011,0.0554 -0.0241,0.11 -0.0352,0.166 -0.777,3.9 -1.46,7.81 -2.05,11.7 -0.003,0.0169 -0.005,0.0338 -0.008,0.0507 -0.188,1.24 -0.415,2.48 -0.582,3.73 -0.0528,0.406 -0.07,0.817 -0.121,1.22 -0.629,4.85 -1.1,9.7 -1.44,14.6 -0.077,1.06 -0.18,2.11 -0.244,3.16 -0.0966,1.71 -0.186,3.42 -0.246,5.14 -0.148,3.74 -0.24,7.48 -0.203,11.2 0.0111,0.499 0.049,0.996 0.0625,1.49 0.005,0.277 -0.0158,0.556 -0.01,0.833 0.0778,2.62 0.235,5.23 0.369,7.85 0.0742,1.48 0.122,2.95 0.209,4.43 0.178,2.95 0.388,5.9 0.598,8.85 0.0924,1.29 0.166,2.57 0.262,3.86 0.005,0.0626 0.0126,0.125 0.0176,0.187 0.008,0.105 0.0135,0.209 0.0215,0.314 0.395,4.97 0.865,9.93 1.39,14.9 0.001,0.0111 0.003,0.0221 0.004,0.0332 0.002,0.0143 0.002,0.0286 0.004,0.0429 0.0718,0.681 0.162,1.36 0.236,2.04 0.0131,0.114 0.0266,0.229 0.0391,0.343 0.437,3.98 0.906,7.95 1.42,11.9 0.003,0.0246 0.005,0.0495 0.008,0.0742 0.254,1.95 0.542,3.9 0.817,5.85 0.002,0.0137 0.004,0.0273 0.006,0.041 0.063,0.446 0.134,0.891 0.197,1.34 0.348,2.45 0.698,4.89 1.08,7.34 0.003,0.0195 0.007,0.039 0.01,0.0585 0.002,0.0136 0.004,0.0274 0.006,0.041 0.302,1.92 0.624,3.84 0.946,5.76 0.007,0.0397 0.0129,0.0794 0.0195,0.119 0.276,1.65 0.521,3.31 0.811,4.96 0.429,2.37 0.861,4.73 1.32,7.09 0.01,0.0494 0.0174,0.0989 0.0274,0.148 -3.94,4.44 -7.78,8.96 -11.5,13.5 -0.409,0.506 -0.804,1.03 -1.21,1.53 -5.8e-4,7.1e-4 -10e-4,0.001 -0.002,0.002 -2.77,3.4 -5.51,6.84 -8.17,10.3 -5.5e-4,7.3e-4 -0.001,10e-4 -0.002,0.002 -1.86,2.43 -3.69,4.87 -5.46,7.37 -5.2e-4,7.4e-4 -0.001,10e-4 -0.002,0.002 -1.77,2.49 -3.49,5.03 -5.11,7.62 -0.0388,0.0639 -0.0725,0.133 -0.111,0.197 -1.17,1.88 -2.26,3.8 -3.25,5.78 -0.385,0.757 -0.745,1.51 -1.07,2.29 -0.001,0.003 -0.003,0.005 -0.004,0.008 -0.157,0.355 -0.347,0.696 -0.496,1.06 -0.0793,0.201 -0.0958,0.419 -0.168,0.623 -0.001,0.004 -6.4e-4,0.008 -0.002,0.0117 -0.274,0.786 -0.462,1.6 -0.649,2.41 -10e-4,0.006 -0.004,0.0115 -0.006,0.0176 -0.112,0.524 -0.256,1.03 -0.326,1.57 -8e-5,6.3e-4 9e-5,10e-4 0,0.002 -0.0346,0.239 -0.123,0.461 -0.149,0.703 -0.003,0.891 10e-4,1.78 -0.002,2.67 0.007,0.191 -0.0373,0.381 -0.0254,0.572 -0.0428,26.2 -0.002,52.5 -0.0508,78.7 -0.002,2.37 0.0236,4.74 -0.0137,7.11 -0.0697,1.01 -0.0741,2.04 -0.0274,3.06 3e-5,6.6e-4 -3e-5,10e-4 0,0.002 0.0158,0.354 0.0608,0.696 0.0977,1.05 0.0651,0.659 0.171,1.31 0.315,1.95 4.4e-4,0.002 0.002,0.004 0.002,0.006 0.0629,0.27 0.133,0.532 0.211,0.796 7.6e-4,0.003 0.001,0.005 0.002,0.008 0.0621,0.215 0.171,0.411 0.246,0.621 0.158,0.44 0.306,0.883 0.514,1.31 0.139,0.286 0.28,0.567 0.442,0.841 10e-4,0.002 9.1e-4,0.004 0.002,0.006 0.106,0.174 0.164,0.368 0.281,0.537 0.232,0.36 0.557,0.633 0.837,0.952 0.179,0.207 0.291,0.457 0.489,0.652 3.6e-4,3.6e-4 0.002,-3.6e-4 0.002,0 0.0879,0.0864 0.193,0.148 0.283,0.23 3.7e-4,3.4e-4 0.002,-3.4e-4 0.002,0 0.114,0.101 0.233,0.188 0.352,0.283 7.2e-4,5.8e-4 0.001,10e-4 0.002,0.002 0.557,0.453 1.15,0.837 1.79,1.14 8.1e-4,3.9e-4 10e-4,0.002 0.002,0.002 0.0892,0.0439 0.171,0.0956 0.262,0.137 0.203,0.0894 0.421,0.122 0.629,0.197 0.834,0.312 1.69,0.507 2.58,0.585 0.265,0.0234 0.518,0.0214 0.784,0.0254 0.347,0.002 0.69,0.0719 1.04,0.0351 0.38,-0.035 0.727,-0.176 1.09,-0.25 0.457,-0.0833 0.891,-0.166 1.33,-0.306 0.847,-0.28 1.66,-0.654 2.44,-1.1 0.007,-0.005 0.0157,-0.008 0.0235,-0.0117 0.0607,-0.0392 0.138,-0.0473 0.197,-0.0878 0.0131,-0.008 0.0241,-0.0177 0.0371,-0.0254 1,-0.594 1.95,-1.29 2.85,-2.05 0.003,-0.002 0.007,-0.003 0.01,-0.006 0.346,-0.289 0.668,-0.604 0.999,-0.911 0.024,-0.0223 0.0482,-0.0442 0.0723,-0.0663 0.006,-0.006 0.0131,-0.0116 0.0195,-0.0176 0.263,-0.245 0.546,-0.479 0.799,-0.728 0.117,-0.121 0.237,-0.24 0.354,-0.361 3.3e-4,-3.3e-4 -3.3e-4,-0.002 0,-0.002 0.975,-0.971 1.95,-1.94 2.89,-2.95 0.009,-0.01 0.0181,-0.0197 0.0274,-0.0293 2.8,-2.89 5.63,-5.76 8.44,-8.64 0.005,-0.005 0.0105,-0.0103 0.0156,-0.0156 0.0241,-0.0247 0.0482,-0.0495 0.0723,-0.0742 12.6,-12.9 25.3,-25.6 38,-38.4 1.31,5.26 2.73,10.5 4.15,15.7 0.375,1.38 0.71,2.77 1.09,4.14 1.7e-4,6.1e-4 -1.6e-4,0.001 0,0.002 0.584,2.1 1.24,4.18 1.84,6.28 1.32,4.56 2.63,9.12 4.06,13.6 0.692,2.2 1.46,4.37 2.18,6.56 1.45,4.41 2.91,8.81 4.48,13.2 0.843,2.34 1.77,4.66 2.65,6.98 0.0104,0.0274 0.0209,0.0546 0.0313,0.082 1.19,3.16 2.32,6.34 3.59,9.48 0.359,0.882 0.769,1.75 1.14,2.63 0.004,0.01 0.008,0.0195 0.0117,0.0293 0.001,0.003 0.003,0.007 0.004,0.01 0.048,0.117 0.0926,0.235 0.139,0.353 0.242,0.617 0.465,1.24 0.721,1.85 0.312,0.682 0.623,1.31 0.934,1.97 0.0403,0.0858 0.0809,0.168 0.121,0.256 0.004,0.009 0.008,0.0167 0.0117,0.0254 0.511,1.19 1.08,2.35 1.6,3.54 1.33,3.01 2.65,6.03 4.08,9 0.493,1.03 1.05,2.02 1.56,3.04 1.53,3.08 3.05,6.17 4.71,9.18 10e-4,0.002 0.003,0.004 0.004,0.006 1.9,3.47 3.93,6.86 6.02,10.2 0.329,0.529 0.616,1.08 0.95,1.61 2.06,3.25 4.28,6.39 6.55,9.51 0.43,0.591 0.805,1.22 1.24,1.81 9.6e-4,10e-4 0.003,9.3e-4 0.004,0.002 0.0264,0.0353 0.0478,0.074 0.0743,0.109 1.11,1.55 3.18,2.22 5.32,2.13 2.13,0.0843 4.21,-0.586 5.32,-2.13 0.0256,-0.0341 0.0468,-0.0712 0.0723,-0.105 0.002,-0.002 0.006,-0.003 0.008,-0.006 0.846,-1.13 1.58,-2.33 2.4,-3.48 1.84,-2.58 3.69,-5.15 5.39,-7.83 0.334,-0.526 0.621,-1.08 0.95,-1.61 2.09,-3.36 4.12,-6.75 6.02,-10.2 0.356,-0.65 0.665,-1.33 1.01,-1.98 1.81,-3.39 3.59,-6.8 5.26,-10.3 1.99,-4.13 3.87,-8.31 5.68,-12.5 0.002,-0.004 0.004,-0.008 0.006,-0.0117 0.002,-0.005 0.004,-0.009 0.006,-0.0137 0.351,-0.761 0.704,-1.46 1.06,-2.23 0.305,-0.728 0.559,-1.48 0.86,-2.21 10e-4,-0.003 0.003,-0.007 0.004,-0.01 0.004,-0.01 0.008,-0.0195 0.0117,-0.0293 0.366,-0.88 0.777,-1.74 1.14,-2.63 1.27,-3.13 2.4,-6.32 3.59,-9.48 0.279,-0.737 0.555,-1.47 0.838,-2.21 0.622,-1.62 1.25,-3.23 1.84,-4.86 1.57,-4.36 3.03,-8.76 4.48,-13.2 0.72,-2.19 1.49,-4.36 2.18,-6.56 1.42,-4.53 2.74,-9.09 4.06,-13.6 0.605,-2.1 1.26,-4.18 1.84,-6.28 0.382,-1.38 0.718,-2.76 1.09,-4.14 1.42,-5.24 2.84,-10.5 4.15,-15.7 12.7,12.7 25.4,25.5 38,38.4 0.0293,0.0299 0.0587,0.0598 0.0879,0.0898 2.81,2.88 5.64,5.74 8.44,8.64 0.009,0.01 0.0181,0.0197 0.0274,0.0293 0.908,0.975 1.85,1.91 2.79,2.85 0.0336,0.0335 0.0661,0.068 0.0997,0.101 l 0.002,0.002 c 0.117,0.121 0.235,0.24 0.352,0.361 0.253,0.249 0.537,0.483 0.799,0.728 0.006,0.006 0.0131,0.0116 0.0195,0.0176 0.0525,0.0485 0.106,0.0956 0.158,0.144 0.302,0.282 0.598,0.569 0.915,0.833 0.002,0.002 0.004,0.002 0.006,0.004 7.1e-4,5.9e-4 10e-4,0.001 0.002,0.002 0.894,0.758 1.84,1.45 2.84,2.04 0.002,9.2e-4 0.002,0.003 0.004,0.004 0.013,0.008 0.024,0.0174 0.0371,0.0254 0.0598,0.0405 0.137,0.0486 0.197,0.0878 0.008,0.004 0.0161,0.007 0.0235,0.0117 0.779,0.442 1.59,0.817 2.43,1.1 5.7e-4,1.8e-4 10e-4,-1.9e-4 0.002,0 0.22,0.0701 0.444,0.104 0.665,0.152 0.221,0.0483 0.437,0.113 0.665,0.154 6.3e-4,1.2e-4 10e-4,-1.2e-4 0.002,0 0.369,0.0741 0.715,0.215 1.1,0.25 0.345,0.0363 0.688,-0.0331 1.03,-0.0351 0.266,-0.004 0.519,-0.002 0.784,-0.0254 0.887,-0.0783 1.75,-0.273 2.58,-0.585 0.209,-0.0752 0.427,-0.108 0.629,-0.197 0.0907,-0.041 0.172,-0.0929 0.262,-0.137 8.2e-4,-3.9e-4 10e-4,-0.002 0.002,-0.002 0.32,-0.153 0.598,-0.38 0.897,-0.572 0.298,-0.191 0.617,-0.345 0.895,-0.572 7.3e-4,-5.8e-4 0.001,-10e-4 0.002,-0.002 0.119,-0.0951 0.238,-0.182 0.352,-0.283 0.0913,-0.0827 0.197,-0.143 0.285,-0.23 3.7e-4,-3.6e-4 0.002,3.6e-4 0.002,0 0.198,-0.194 0.31,-0.445 0.489,-0.652 0.279,-0.319 0.607,-0.593 0.838,-0.952 0.118,-0.169 0.175,-0.363 0.281,-0.537 0.163,-0.276 0.302,-0.559 0.442,-0.847 0.208,-0.423 0.356,-0.866 0.514,-1.31 0.0753,-0.209 0.184,-0.406 0.246,-0.621 7.6e-4,-0.003 10e-4,-0.005 0.002,-0.008 0.0782,-0.265 0.148,-0.527 0.211,-0.796 4.4e-4,-0.002 0.002,-0.004 0.002,-0.006 0.144,-0.642 0.25,-1.29 0.315,-1.95 0.037,-0.352 0.082,-0.694 0.0977,-1.05 3e-5,-6.5e-4 -3e-5,-10e-4 0,-0.002 0.0467,-1.03 0.0423,-2.06 -0.0274,-3.06 -0.0373,-2.37 -0.0122,-4.74 -0.0137,-7.11 -0.0486,-26.2 -0.008,-52.5 -0.0508,-78.7 0.0119,-0.191 -0.032,-0.381 -0.0254,-0.572 -0.003,-0.891 10e-4,-1.78 -0.002,-2.67 -0.0251,-0.241 -0.114,-0.464 -0.149,-0.703 -8e-5,-6.3e-4 9e-5,-10e-4 0,-0.002 -0.07,-0.531 -0.214,-1.04 -0.326,-1.57 -10e-4,-0.006 -0.004,-0.0115 -0.006,-0.0176 -0.186,-0.814 -0.375,-1.63 -0.649,-2.41 -0.0735,-0.207 -0.0892,-0.43 -0.17,-0.634 -0.149,-0.36 -0.337,-0.7 -0.494,-1.06 -0.331,-0.782 -0.694,-1.54 -1.08,-2.3 -0.99,-1.98 -2.08,-3.9 -3.25,-5.78 -0.0389,-0.064 -0.0726,-0.133 -0.111,-0.197 -1.63,-2.59 -3.34,-5.13 -5.11,-7.62 -1.77,-2.49 -3.6,-4.94 -5.47,-7.37 -1.33,-1.75 -2.72,-3.44 -4.09,-5.16 -1.37,-1.72 -2.7,-3.47 -4.09,-5.17 -0.409,-0.507 -0.804,-1.03 -1.21,-1.53 -3.76,-4.59 -7.61,-9.11 -11.5,-13.5 0.01,-0.0494 0.0179,-0.0989 0.0274,-0.148 0.458,-2.36 0.891,-4.73 1.32,-7.09 0.291,-1.65 0.537,-3.31 0.813,-4.96 0.332,-1.97 0.659,-3.95 0.969,-5.92 0.386,-2.46 0.739,-4.93 1.09,-7.4 0.0645,-0.453 0.137,-0.905 0.201,-1.36 9.1e-4,-0.006 0.001,-0.013 0.002,-0.0195 0.275,-1.95 0.565,-3.9 0.819,-5.85 0.003,-0.0247 0.005,-0.0495 0.008,-0.0742 0.519,-3.97 0.986,-7.94 1.42,-11.9 0.0125,-0.115 0.026,-0.229 0.0391,-0.343 0.0244,-0.224 0.0515,-0.448 0.0782,-0.671 0.056,-0.471 0.112,-0.941 0.162,-1.41 0.524,-4.97 0.996,-9.94 1.39,-14.9 0.008,-0.105 0.0138,-0.209 0.0215,-0.314 0.005,-0.0626 0.0126,-0.125 0.0176,-0.187 0.0962,-1.28 0.17,-2.57 0.262,-3.86 0.21,-2.95 0.42,-5.9 0.598,-8.85 0.0876,-1.48 0.135,-2.95 0.209,-4.43 0.134,-2.62 0.292,-5.23 0.369,-7.85 0.006,-0.277 -0.0148,-0.556 -0.01,-0.833 0.0134,-0.499 0.0514,-0.996 0.0625,-1.49 0.0369,-3.74 -0.0557,-7.48 -0.203,-11.2 -0.0599,-1.72 -0.15,-3.43 -0.246,-5.14 -0.0639,-1.06 -0.167,-2.11 -0.244,-3.16 -0.339,-4.87 -0.809,-9.73 -1.44,-14.6 -0.0512,-0.406 -0.0684,-0.818 -0.121,-1.22 -0.167,-1.25 -0.398,-2.49 -0.584,-3.73 -0.003,-0.0169 -0.005,-0.0338 -0.008,-0.0507 -0.592,-3.93 -1.27,-7.84 -2.05,-11.7 -0.0109,-0.0547 -0.0224,-0.109 -0.0332,-0.164 -0.002,-0.01 -0.004,-0.0195 -0.006,-0.0293 -0.434,-2.17 -0.856,-4.34 -1.35,-6.5 -0.22,-0.969 -0.373,-1.95 -0.604,-2.92 -0.451,-1.89 -1.01,-3.75 -1.5,-5.63 -0.197,-0.744 -0.393,-1.49 -0.596,-2.23 -0.83,-3.03 -1.7,-6.05 -2.65,-9.05 -0.002,-0.006 -0.004,-0.0117 -0.006,-0.0176 -0.133,-0.424 -0.277,-0.845 -0.412,-1.27 -0.006,-0.0202 -0.0131,-0.0403 -0.0195,-0.0605 -1.53,-4.79 -3.2,-9.53 -5.01,-14.2 -0.809,-2.1 -1.74,-4.16 -2.61,-6.24 -1.05,-2.54 -2.04,-5.1 -3.17,-7.6 -0.0249,-0.0553 -0.0496,-0.111 -0.0743,-0.166 -0.009,-0.0205 -0.0161,-0.042 -0.0254,-0.0624 -0.218,-0.483 -0.422,-0.971 -0.643,-1.45 -0.007,-0.0159 -0.0162,-0.031 -0.0235,-0.0468 -1.25,-2.72 -2.56,-5.41 -3.9,-8.09 -0.235,-0.469 -0.447,-0.948 -0.684,-1.41 -0.162,-0.32 -0.341,-0.632 -0.504,-0.95 -1.3,-2.53 -2.63,-5.05 -4,-7.54 -0.0516,-0.0936 -0.0988,-0.189 -0.15,-0.283 -0.382,-0.691 -0.778,-1.37 -1.16,-2.06 -2.27,-4.03 -4.63,-7.99 -7.09,-11.9 -1.31,-2.08 -2.72,-4.11 -4.08,-6.16 -1.18,-1.77 -2.31,-3.58 -3.53,-5.33 -0.0307,-0.0442 -0.0612,-0.0885 -0.0919,-0.133 -0.0148,-0.0212 -0.0282,-0.0432 -0.043,-0.0644 -0.63,-0.904 -1.24,-1.82 -1.88,-2.72 -0.492,-0.688 -0.948,-1.4 -1.45,-2.08 -0.922,-1.26 -1.9,-2.48 -2.85,-3.72 -0.909,-1.21 -1.83,-2.41 -2.75,-3.6 -0.112,-0.144 -0.22,-0.29 -0.332,-0.433 -1.37,-1.76 -2.76,-3.51 -4.18,-5.24 -1.06,-1.3 -2.15,-2.58 -3.23,-3.87 -1.54,-1.83 -3.09,-3.66 -4.68,-5.45 -0.915,-1.03 -1.86,-2.03 -2.79,-3.05 -0.0773,-0.0841 -0.155,-0.167 -0.233,-0.252 -1.21,-1.32 -2.45,-2.6 -3.68,-3.91 -1.06,-1.12 -2.1,-2.27 -3.18,-3.37 -2.36,-2.42 -4.77,-4.8 -7.24,-7.12 -2.16,-2.29 -4.55,-4.39 -6.94,-6.35 -0.0366,-0.0335 -0.0767,-0.0641 -0.113,-0.0976 -2.39,-2.18 -4.9,-4.31 -7.66,-5.96 -3.8e-4,-2.9e-4 -0.002,2.9e-4 -0.002,0 z m 0,118 c 0.765,-9.3e-4 1.53,0.0828 2.29,0.129 0.005,3.2e-4 0.0104,-3.2e-4 0.0156,0 0.629,0.0369 1.26,0.055 1.88,0.115 0.0779,0.008 0.157,0.004 0.235,0.0137 6.5e-4,8e-5 10e-4,-8e-5 0.002,0 0.562,0.0666 1.11,0.201 1.67,0.295 0.955,0.161 1.92,0.3 2.86,0.537 0.074,0.0183 0.145,0.0476 0.219,0.0663 1.91,0.493 3.77,1.15 5.58,1.95 1.8,0.797 3.54,1.73 5.21,2.79 0.614,0.392 1.23,0.782 1.82,1.21 7.3e-4,5.3e-4 10e-4,0.001 0.002,0.002 0.631,0.455 1.24,0.943 1.84,1.44 0.616,0.506 1.22,1.02 1.8,1.57 l 0.004,0.004 c 0.495,0.463 0.967,0.952 1.43,1.44 0.586,0.608 1.11,1.27 1.64,1.92 0.24,0.294 0.505,0.566 0.739,0.865 0.003,0.003 0.005,0.006 0.008,0.01 0.446,0.576 0.924,1.12 1.33,1.73 0.91,1.32 1.72,2.71 2.45,4.14 0.206,0.4 0.41,0.801 0.6,1.21 0.716,1.54 1.33,3.13 1.84,4.75 0.121,0.394 0.224,0.793 0.332,1.19 0.458,1.68 0.825,3.38 1.04,5.11 0.0282,0.222 0.0336,0.447 0.0586,0.669 0.0927,0.823 0.184,1.65 0.219,2.47 1.6e-4,0.004 -1.7e-4,0.008 0,0.0117 0.0484,1.16 0.0442,2.31 -0.0156,3.47 -3e-5,6.5e-4 4e-5,10e-4 0,0.002 -0.0599,1.15 -0.176,2.31 -0.346,3.45 -0.174,1.25 -0.421,2.5 -0.729,3.72 -0.005,0.0193 -0.007,0.0392 -0.0117,0.0585 -0.262,1.03 -0.595,2.05 -0.948,3.05 -0.067,0.192 -0.11,0.391 -0.18,0.582 -0.439,1.19 -0.94,2.36 -1.5,3.49 -0.0505,0.103 -0.111,0.202 -0.162,0.304 -0.499,0.995 -1.04,1.97 -1.62,2.92 -0.174,0.28 -0.368,0.548 -0.549,0.824 -0.47,0.718 -0.958,1.42 -1.48,2.11 -0.28,0.372 -0.58,0.728 -0.874,1.09 -0.512,0.626 -1.03,1.24 -1.59,1.84 -6.2e-4,6.8e-4 -10e-4,10e-4 -0.002,0.002 -0.0761,0.0815 -0.157,0.158 -0.235,0.238 -0.233,0.241 -0.468,0.48 -0.706,0.716 l -0.004,0.004 c -0.549,0.547 -1.11,1.08 -1.69,1.59 -0.003,0.003 -0.007,0.005 -0.01,0.008 -0.373,0.327 -0.757,0.641 -1.14,0.952 -0.519,0.418 -1.05,0.819 -1.59,1.21 -0.0861,0.062 -0.167,0.13 -0.254,0.191 -0.421,0.298 -0.846,0.59 -1.28,0.87 -0.002,0.002 -0.005,0.002 -0.008,0.004 -0.448,0.294 -0.901,0.578 -1.36,0.851 -0.606,0.357 -1.22,0.693 -1.85,1.01 -0.4,0.206 -0.799,0.414 -1.21,0.605 -0.214,0.101 -0.436,0.184 -0.653,0.279 -0.43,0.188 -0.86,0.379 -1.3,0.554 -7.8e-4,3.2e-4 -10e-4,0.002 -0.002,0.002 -0.435,0.174 -0.866,0.358 -1.31,0.515 -0.646,0.232 -1.3,0.428 -1.96,0.623 -0.458,0.136 -0.913,0.284 -1.38,0.402 -0.271,0.0687 -0.55,0.109 -0.823,0.172 -1.84,0.424 -3.71,0.709 -5.59,0.851 -0.382,0.0294 -0.761,0.0666 -1.14,0.0839 -0.543,0.0243 -1.09,0.0275 -1.63,0.0273 -0.544,1.9e-4 -1.09,-0.003 -1.63,-0.0273 -0.381,-0.0172 -0.763,-0.0545 -1.14,-0.0839 -6.4e-4,-5e-5 -10e-4,5e-5 -0.002,0 -1.88,-0.142 -3.75,-0.427 -5.59,-0.851 -10e-4,-2.9e-4 -0.003,2.8e-4 -0.004,0 -0.272,-0.0622 -0.548,-0.103 -0.819,-0.172 -0.461,-0.117 -0.914,-0.265 -1.37,-0.4 -0.001,-4e-4 -0.003,-0.002 -0.004,-0.002 -0.658,-0.195 -1.32,-0.391 -1.96,-0.623 -0.441,-0.158 -0.872,-0.341 -1.31,-0.515 -7.9e-4,-3.2e-4 -0.001,-0.002 -0.002,-0.002 -0.653,-0.263 -1.3,-0.53 -1.94,-0.829 -0.003,-10e-4 -0.005,-0.003 -0.008,-0.004 -0.203,-0.0952 -0.4,-0.199 -0.6,-0.301 -0.199,-0.101 -0.4,-0.198 -0.598,-0.301 -0.003,-0.001 -0.005,-0.003 -0.008,-0.004 -0.167,-0.0859 -0.327,-0.183 -0.493,-0.271 -0.454,-0.241 -0.909,-0.483 -1.35,-0.744 -4.7e-4,-2.8e-4 -10e-4,2.8e-4 -0.002,0 -0.385,-0.228 -0.762,-0.468 -1.14,-0.71 -0.0742,-0.0479 -0.151,-0.0921 -0.225,-0.141 -10e-4,-7.8e-4 -0.003,-0.001 -0.004,-0.002 -7.5e-4,-4.9e-4 -0.001,-10e-4 -0.002,-0.002 -0.436,-0.283 -0.862,-0.576 -1.29,-0.876 -0.628,-0.443 -1.24,-0.909 -1.84,-1.39 -7.1e-4,-5.8e-4 -10e-4,-0.001 -0.002,-0.002 -0.386,-0.311 -0.768,-0.626 -1.14,-0.952 -0.585,-0.513 -1.15,-1.05 -1.7,-1.6 l -0.006,-0.006 c -0.0144,-0.0143 -0.0286,-0.0286 -0.043,-0.0429 -0.302,-0.3 -0.603,-0.598 -0.893,-0.909 -0.553,-0.592 -1.08,-1.21 -1.59,-1.84 -0.294,-0.36 -0.594,-0.717 -0.874,-1.09 -0.515,-0.68 -1,-1.38 -1.47,-2.09 -0.003,-0.004 -0.005,-0.008 -0.008,-0.0117 -0.182,-0.275 -0.375,-0.544 -0.549,-0.824 -0.585,-0.946 -1.13,-1.92 -1.62,-2.92 -0.0515,-0.103 -0.112,-0.201 -0.162,-0.304 -0.558,-1.14 -1.06,-2.3 -1.5,-3.49 -0.0703,-0.19 -0.113,-0.39 -0.18,-0.582 -0.353,-1.01 -0.686,-2.02 -0.948,-3.05 -0.005,-0.0193 -0.007,-0.0392 -0.0117,-0.0585 -0.308,-1.23 -0.555,-2.47 -0.729,-3.72 -0.341,-2.29 -0.458,-4.61 -0.362,-6.92 1.7e-4,-0.004 -1.6e-4,-0.008 0,-0.0117 4.1e-4,-0.01 0.002,-0.0195 0.002,-0.0293 0.0352,-0.817 0.125,-1.63 0.217,-2.45 0.0251,-0.223 0.0304,-0.447 0.0586,-0.669 8e-5,-6.3e-4 -8e-5,-10e-4 0,-0.002 0.0367,-0.292 0.131,-0.574 0.176,-0.865 0.221,-1.43 0.488,-2.85 0.868,-4.24 0.108,-0.398 0.211,-0.796 0.332,-1.19 0.501,-1.62 1.12,-3.21 1.83,-4.75 0.19,-0.407 0.396,-0.808 0.602,-1.21 0.73,-1.43 1.54,-2.82 2.45,-4.14 0.408,-0.605 0.887,-1.15 1.33,-1.73 0.003,-0.003 0.005,-0.006 0.008,-0.01 5.6e-4,-7.2e-4 10e-4,-10e-4 0.002,-0.002 0.233,-0.298 0.497,-0.57 0.737,-0.863 0.534,-0.653 1.06,-1.31 1.64,-1.92 0.003,-0.003 0.005,-0.007 0.008,-0.01 0.23,-0.241 0.473,-0.471 0.708,-0.708 0.239,-0.242 0.473,-0.491 0.721,-0.724 0.583,-0.546 1.19,-1.07 1.8,-1.57 0.601,-0.494 1.21,-0.981 1.84,-1.44 0.586,-0.424 1.2,-0.813 1.81,-1.2 0.003,-0.002 0.007,-0.004 0.01,-0.006 10e-4,-7.7e-4 0.003,-10e-4 0.004,-0.002 0.285,-0.181 0.602,-0.304 0.891,-0.478 1.4,-0.843 2.82,-1.65 4.32,-2.31 1.8,-0.797 3.67,-1.45 5.58,-1.95 0.0739,-0.0187 0.145,-0.048 0.219,-0.0663 0.933,-0.235 1.89,-0.372 2.83,-0.533 0.004,-6.5e-4 0.008,-0.001 0.0117,-0.002 0.003,-5.6e-4 0.007,-0.001 0.01,-0.002 0.559,-0.0921 1.11,-0.228 1.67,-0.295 0.0706,-0.008 0.142,-0.007 0.213,-0.0137 0.639,-0.0628 1.28,-0.077 1.93,-0.115 0.763,-0.0469 1.52,-0.13 2.29,-0.129 z"
         fill="#ffffff"
         stop-color="#000000"
         style="font-variation-settings:normal"
         id="path159" /><path
         id="path161"
         style="font-variation-settings:normal;fill:url(#linearGradient14535);fill-opacity:1"
         d="m 603.91611,626.85395 c 9.91664,42.90232 27.32526,102.43578 54.08294,138.54681 h 0.003 c 26.82772,-36.00717 44.23175,-95.60024 54.12742,-138.54363 -0.21548,-0.006 -0.43261,-0.0129 -0.64808,-0.0191 -8.89999,-0.243 -17.82421,-0.50463 -26.7492,-0.72351 -8.92499,-0.21887 -17.84921,-0.39384 -26.7492,-0.46534 h -0.003 c -8.89999,0.07 -17.80176,0.24597 -26.71425,0.46534 -8.91249,0.21938 -17.83733,0.48101 -26.78732,0.72351 -0.18776,0.005 -0.37455,0.0109 -0.56231,0.0159 z" /><path
         d="m 658,248 c 0,0 -5.88,4.57 -14.7,13.4 -6.62,6.6 -14.9,15.6 -23.6,26.8 -21.7,28 -46,70.1 -53.5,124 -0.5,3.59 -0.925,7.22 -1.27,10.9 -0.689,7.38 -1.06,15 -1.06,22.8 0,0 0.0448,2.37 0.168,6.04 0.0381,1.18 0.0935,1.93 0.16,3.49 0.159,3.88 0.464,8.72 0.891,14.7 0.2,2.8 0.381,5.26 0.66,8.46 1.43,16.6 3.97,37.8 8.66,60.9 10e-4,0.007 0.002,0.0142 0.004,0.0215 -2.44,2.39 -38.1,42.9 -38.4,53.5 v 88.5 c 0,0 -1.77,12.7 8.49,1.77 10.26,-10.93 51.3,-52 51.3,-52 0,0 4.83,-5.78 13.9,-6.01 h 96.8 c 9.03,0.234 13.9,6.01 13.9,6.01 0,0 41,41 51.3,52 10.3,11 8.49,-1.77 8.49,-1.77 v -88.5 c -0.342,-10.6 -36,-51.2 -38.4,-53.5 10e-4,-0.007 0.002,-0.0144 0.004,-0.0215 4.69,-23.1 7.23,-44.2 8.66,-60.9 0.279,-3.19 0.46,-5.65 0.66,-8.46 0.427,-6.01 0.732,-10.9 0.891,-14.7 0.0667,-1.56 0.122,-2.32 0.16,-3.49 0.123,-3.67 0.168,-6.04 0.168,-6.04 0,-11.7 -0.827,-22.9 -2.33,-33.7 -5.5,-39.4 -20,-72.6 -36,-98.5 -14.5,-23.6 -30.1,-41.2 -41.1,-52.2 -2.21,-2.2 -4.23,-4.14 -6.02,-5.8 h -0.002 c -1.79,-1.67 -3.35,-3.06 -4.64,-4.18 h -0.002 c -2.57,-2.24 -4.04,-3.38 -4.04,-3.38 z m -0.0215,99.5 c 24.9,1.3e-4 45.2,20.2 45.2,45.2 -1.2e-4,24.9 -20.2,45.2 -45.2,45.2 -24.9,-1.2e-4 -45.2,-20.2 -45.2,-45.2 1.2e-4,-24.9 20.2,-45.2 45.2,-45.2 z"
         fill="url(#linearGradient1204)"
         id="path163"
         style="fill:url(#linearGradient503)" /><path
         d="m 658,248 c 0,0 -94.1,73.1 -94.1,198 0,0 0.0568,2.72 0.234,7.09 0.137,3.59 0.347,7.61 0.787,14 0.182,2.64 0.401,5.37 0.656,8.41 0.102,1.21 0.172,2.25 0.287,3.52 0.411,4.55 0.908,9.44 1.51,14.6 0.141,1.22 0.328,2.54 0.48,3.8 0.497,4.09 1.04,8.27 1.68,12.6 0.285,1.98 0.609,3.99 0.924,6.02 0.355,2.29 0.655,4.5 1.05,6.85 0.32,1.9 0.717,3.89 1.06,5.82 0.411,2.29 0.806,4.54 1.26,6.87 0.218,1.13 0.436,2.24 0.664,3.38 0.898,4.46 1.85,8.96 2.9,13.5 1.16,5.02 2.47,10.1 3.85,15.1 0.519,1.91 1.04,3.81 1.59,5.72 0.304,1.05 0.602,2.11 0.916,3.16 1.01,3.4 2.06,6.78 3.18,10.2 0.0144,0.0434 0.0266,0.0874 0.041,0.131 0.0139,0.0419 0.0291,0.0831 0.043,0.125 1.11,3.35 2.3,6.68 3.53,9.99 0.143,0.387 0.267,0.782 0.412,1.17 0.413,1.1 0.857,2.19 1.28,3.28 0.403,1.04 0.798,2.08 1.21,3.11 0.694,1.72 1.42,3.43 2.15,5.13 0.382,0.895 0.749,1.8 1.14,2.69 0.0688,0.156 0.132,0.317 0.201,0.473 1.06,2.4 2.16,4.78 3.3,7.13 1.13,2.35 2.3,4.71 3.51,6.99 6.5e-4,-2e-5 10e-4,2e-5 0.002,0 0.244,-0.007 0.488,-0.0129 0.732,-0.0195 17.9,-0.485 35.7,-1.05 53.5,-1.19 10e-4,-10e-6 0.003,10e-6 0.004,0 17.8,0.143 35.7,0.704 53.5,1.19 0.244,0.007 0.488,0.0129 0.732,0.0195 6.5e-4,2e-5 10e-4,-2e-5 0.002,0 1.21,-2.28 2.38,-4.64 3.51,-6.99 1.13,-2.35 2.23,-4.73 3.3,-7.13 0.0691,-0.156 0.132,-0.316 0.201,-0.473 0.391,-0.888 0.759,-1.79 1.14,-2.69 0.727,-1.7 1.45,-3.41 2.15,-5.13 0.415,-1.03 0.81,-2.07 1.21,-3.11 0.426,-1.1 0.87,-2.18 1.28,-3.28 0.145,-0.386 0.269,-0.781 0.412,-1.17 1.22,-3.31 2.41,-6.64 3.53,-9.99 0.0283,-0.0852 0.0557,-0.171 0.084,-0.256 1.12,-3.37 2.16,-6.76 3.18,-10.2 0.317,-1.06 0.617,-2.12 0.924,-3.19 0.542,-1.88 1.05,-3.76 1.56,-5.64 1.38,-5.08 2.69,-10.2 3.86,-15.2 1.06,-4.55 2,-9.05 2.9,-13.5 0.228,-1.13 0.446,-2.25 0.664,-3.38 0.451,-2.33 0.846,-4.58 1.26,-6.87 0.347,-1.93 0.744,-3.92 1.06,-5.82 0.395,-2.35 0.695,-4.55 1.05,-6.85 0.315,-2.03 0.639,-4.04 0.924,-6.02 0.631,-4.38 1.18,-8.56 1.68,-12.6 0.153,-1.25 0.34,-2.57 0.48,-3.8 0.6,-5.21 1.1,-10.1 1.51,-14.6 0.115,-1.27 0.185,-2.31 0.287,-3.52 0.255,-3.04 0.474,-5.77 0.656,-8.41 0.44,-6.36 0.65,-10.4 0.787,-14 0.178,-4.37 0.234,-7.09 0.234,-7.09 0,-125 -94.1,-198 -94.1,-198 z m 0,100 c 24.9,1.3e-4 45.2,20.2 45.2,45.2 -1.1e-4,24.9 -20.2,45.2 -45.2,45.2 -24.9,-1.2e-4 -45.2,-20.2 -45.2,-45.2 C 612.80011,368.3 633,348 658,348 Z"
         fill="url(#linearGradient1206)"
         id="path165"
         style="fill:url(#linearGradient505)" /></g><g
       transform="matrix(0.61479645,0,0,0.61279207,327.38444,113.5427)"
       id="g177"
       style="opacity:0.4"><path
         d="m 658,239 c -2.7,1.62 -5.17,3.71 -7.52,5.84 -2.48,2.02 -4.96,4.2 -7.2,6.57 -2.47,2.32 -4.87,4.69 -7.24,7.12 -1.08,1.11 -2.12,2.25 -3.18,3.37 -1.23,1.3 -2.47,2.59 -3.68,3.91 -0.0771,0.0843 -0.155,0.168 -0.233,0.252 -9.4e-4,10e-4 -10e-4,0.003 -0.002,0.004 -0.922,1.01 -1.87,2 -2.77,3.02 -0.006,0.006 -0.0101,0.0133 -0.0156,0.0195 -0.004,0.005 -0.009,0.009 -0.0137,0.0137 -1.58,1.78 -3.12,3.6 -4.65,5.43 -0.003,0.004 -0.006,0.008 -0.01,0.0117 -0.004,0.005 -0.008,0.009 -0.0117,0.0137 -1.08,1.28 -2.16,2.56 -3.22,3.85 -1.41,1.73 -2.79,3.47 -4.16,5.23 -0.004,0.005 -0.008,0.0105 -0.0117,0.0156 -0.112,0.144 -0.221,0.289 -0.332,0.433 -0.914,1.18 -1.82,2.36 -2.71,3.55 -0.0126,0.0168 -0.0245,0.034 -0.0371,0.0507 -0.942,1.25 -1.92,2.46 -2.85,3.72 -0.498,0.683 -0.956,1.39 -1.45,2.08 -0.641,0.897 -1.25,1.81 -1.88,2.72 -0.0148,0.0212 -0.0282,0.0432 -0.043,0.0644 -0.0307,0.0442 -0.0611,0.0886 -0.0919,0.133 -1.22,1.75 -2.35,3.55 -3.53,5.33 -1.36,2.05 -2.77,4.07 -4.08,6.16 -2.46,3.91 -4.82,7.88 -7.09,11.9 -0.387,0.687 -0.78,1.37 -1.16,2.06 -7.1e-4,10e-4 -10e-4,0.003 -0.002,0.004 -0.0517,0.0936 -0.0989,0.189 -0.15,0.283 -1.37,2.49 -2.71,5.01 -4.01,7.54 -0.163,0.319 -0.342,0.631 -0.504,0.95 -0.237,0.467 -0.447,0.946 -0.682,1.41 -1.34,2.68 -2.65,5.37 -3.9,8.09 -0.007,0.0159 -0.0162,0.031 -0.0235,0.0468 -0.221,0.481 -0.425,0.969 -0.643,1.45 -0.009,0.0205 -0.0162,0.042 -0.0254,0.0624 -0.0247,0.0554 -0.0494,0.111 -0.0743,0.166 -0.901,2 -1.68,4.04 -2.53,6.06 -1.1,2.6 -2.25,5.18 -3.26,7.81 -7.4e-4,0.002 -10e-4,0.004 -0.002,0.006 -1.8,4.68 -3.47,9.41 -4.99,14.2 -0.006,0.0202 -0.0131,0.0403 -0.0195,0.0605 -0.135,0.423 -0.279,0.844 -0.412,1.27 -0.002,0.006 -0.004,0.0117 -0.006,0.0176 -0.942,3 -1.82,6.01 -2.65,9.05 -0.203,0.742 -0.399,1.49 -0.596,2.23 -0.495,1.88 -1.05,3.74 -1.5,5.63 -0.231,0.966 -0.384,1.95 -0.604,2.92 -0.491,2.16 -0.911,4.33 -1.34,6.5 -0.002,0.009 -0.002,0.0183 -0.004,0.0273 -0.011,0.0554 -0.0241,0.11 -0.0352,0.166 -0.777,3.9 -1.46,7.81 -2.05,11.7 -0.003,0.0169 -0.005,0.0338 -0.008,0.0507 -0.188,1.24 -0.415,2.48 -0.582,3.73 -0.0528,0.406 -0.07,0.817 -0.121,1.22 -0.629,4.85 -1.1,9.7 -1.44,14.6 -0.077,1.06 -0.18,2.11 -0.244,3.16 -0.0966,1.71 -0.186,3.42 -0.246,5.14 -0.148,3.74 -0.24,7.48 -0.203,11.2 0.0111,0.499 0.049,0.996 0.0625,1.49 0.005,0.277 -0.0158,0.556 -0.01,0.833 0.0778,2.62 0.235,5.23 0.369,7.85 0.0742,1.48 0.122,2.95 0.209,4.43 0.178,2.95 0.388,5.9 0.598,8.85 0.0924,1.29 0.166,2.57 0.262,3.86 0.005,0.0626 0.0126,0.125 0.0176,0.187 0.008,0.105 0.0135,0.209 0.0215,0.314 0.395,4.97 0.865,9.93 1.39,14.9 0.001,0.0111 0.003,0.0221 0.004,0.0332 0.002,0.0143 0.002,0.0286 0.004,0.0429 0.0718,0.681 0.162,1.36 0.236,2.04 0.0131,0.114 0.0266,0.229 0.0391,0.343 0.437,3.98 0.906,7.95 1.42,11.9 0.003,0.0246 0.005,0.0495 0.008,0.0742 0.254,1.95 0.542,3.9 0.817,5.85 0.002,0.0137 0.004,0.0273 0.006,0.041 0.063,0.446 0.134,0.891 0.197,1.34 0.348,2.45 0.698,4.89 1.08,7.34 0.003,0.0195 0.007,0.039 0.01,0.0585 0.002,0.0136 0.004,0.0274 0.006,0.041 0.302,1.92 0.624,3.84 0.946,5.76 0.007,0.0397 0.0129,0.0794 0.0195,0.119 0.276,1.65 0.521,3.31 0.811,4.96 0.429,2.37 0.861,4.73 1.32,7.09 0.01,0.0494 0.0174,0.0989 0.0274,0.148 -3.94,4.44 -7.78,8.96 -11.5,13.5 -0.409,0.506 -0.804,1.03 -1.21,1.53 -5.8e-4,7.1e-4 -10e-4,0.001 -0.002,0.002 -2.77,3.4 -5.51,6.84 -8.17,10.3 -5.5e-4,7.3e-4 -0.001,10e-4 -0.002,0.002 -1.86,2.43 -3.69,4.87 -5.46,7.37 -5.2e-4,7.4e-4 -0.001,10e-4 -0.002,0.002 -1.77,2.49 -3.49,5.03 -5.11,7.62 -0.0388,0.0639 -0.0725,0.133 -0.111,0.197 -1.17,1.88 -2.26,3.8 -3.25,5.78 -0.385,0.757 -0.745,1.51 -1.07,2.29 -0.001,0.003 -0.003,0.005 -0.004,0.008 -0.157,0.355 -0.347,0.696 -0.496,1.06 -0.0793,0.201 -0.0958,0.419 -0.168,0.623 -0.001,0.004 -6.4e-4,0.008 -0.002,0.0117 -0.274,0.786 -0.462,1.6 -0.649,2.41 -10e-4,0.006 -0.004,0.0115 -0.006,0.0176 -0.112,0.524 -0.256,1.03 -0.326,1.57 -8e-5,6.3e-4 9e-5,10e-4 0,0.002 -0.0346,0.239 -0.123,0.461 -0.149,0.703 -0.003,0.891 10e-4,1.78 -0.002,2.67 0.007,0.191 -0.0373,0.381 -0.0254,0.572 -0.0428,26.2 -0.002,52.5 -0.0508,78.7 -0.002,2.37 0.0236,4.74 -0.0137,7.11 -0.0697,1.01 -0.0741,2.04 -0.0274,3.06 3e-5,6.6e-4 -3e-5,10e-4 0,0.002 0.0158,0.354 0.0608,0.696 0.0977,1.05 0.0651,0.659 0.171,1.31 0.315,1.95 4.4e-4,0.002 0.002,0.004 0.002,0.006 0.0629,0.27 0.133,0.532 0.211,0.796 7.6e-4,0.003 0.001,0.005 0.002,0.008 0.0621,0.215 0.171,0.411 0.246,0.621 0.158,0.44 0.306,0.883 0.514,1.31 0.139,0.286 0.28,0.567 0.442,0.841 10e-4,0.002 9.1e-4,0.004 0.002,0.006 0.106,0.174 0.164,0.368 0.281,0.537 0.232,0.36 0.557,0.633 0.837,0.952 0.179,0.207 0.291,0.457 0.489,0.652 3.6e-4,3.6e-4 0.002,-3.6e-4 0.002,0 0.0879,0.0864 0.193,0.148 0.283,0.23 3.7e-4,3.4e-4 0.002,-3.4e-4 0.002,0 0.114,0.101 0.233,0.188 0.352,0.283 7.2e-4,5.8e-4 0.001,10e-4 0.002,0.002 0.557,0.453 1.15,0.837 1.79,1.14 8.1e-4,3.9e-4 10e-4,0.002 0.002,0.002 0.0892,0.0439 0.171,0.0956 0.262,0.137 0.203,0.0894 0.421,0.122 0.629,0.197 0.834,0.312 1.69,0.507 2.58,0.585 0.265,0.0234 0.518,0.0214 0.784,0.0254 0.347,0.002 0.69,0.0719 1.04,0.0351 0.38,-0.035 0.727,-0.176 1.09,-0.25 0.457,-0.0833 0.891,-0.166 1.33,-0.306 0.847,-0.28 1.66,-0.654 2.44,-1.1 0.007,-0.005 0.0157,-0.008 0.0235,-0.0117 0.0607,-0.0392 0.138,-0.0473 0.197,-0.0878 0.0131,-0.008 0.0241,-0.0177 0.0371,-0.0254 1,-0.594 1.95,-1.29 2.85,-2.05 0.003,-0.002 0.007,-0.003 0.01,-0.006 0.346,-0.289 0.668,-0.604 0.999,-0.911 0.024,-0.0223 0.0482,-0.0442 0.0723,-0.0663 0.006,-0.006 0.0131,-0.0116 0.0195,-0.0176 0.263,-0.245 0.546,-0.479 0.799,-0.728 0.117,-0.121 0.237,-0.24 0.354,-0.361 3.3e-4,-3.3e-4 -3.3e-4,-0.002 0,-0.002 0.975,-0.971 1.95,-1.94 2.89,-2.95 0.009,-0.01 0.0181,-0.0197 0.0274,-0.0293 2.8,-2.89 5.63,-5.76 8.44,-8.64 0.005,-0.005 0.0105,-0.0103 0.0156,-0.0156 0.0241,-0.0247 0.0482,-0.0495 0.0723,-0.0742 12.6,-12.9 25.3,-25.6 38,-38.4 1.31,5.26 2.73,10.5 4.15,15.7 0.375,1.38 0.71,2.77 1.09,4.14 1.7e-4,6.1e-4 -1.6e-4,0.001 0,0.002 0.584,2.1 1.24,4.18 1.84,6.28 1.32,4.56 2.63,9.12 4.06,13.6 0.692,2.2 1.46,4.37 2.18,6.56 1.45,4.41 2.91,8.81 4.48,13.2 0.843,2.34 1.77,4.66 2.65,6.98 0.0104,0.0274 0.0209,0.0546 0.0313,0.082 1.19,3.16 2.32,6.34 3.59,9.48 0.359,0.882 0.769,1.75 1.14,2.63 0.004,0.01 0.008,0.0195 0.0117,0.0293 0.001,0.003 0.003,0.007 0.004,0.01 0.048,0.117 0.0926,0.235 0.139,0.353 0.242,0.617 0.465,1.24 0.721,1.85 0.312,0.682 0.623,1.31 0.934,1.97 0.0403,0.0858 0.0809,0.168 0.121,0.256 0.004,0.009 0.008,0.0167 0.0117,0.0254 0.511,1.19 1.08,2.35 1.6,3.54 1.33,3.01 2.65,6.03 4.08,9 0.493,1.03 1.05,2.02 1.56,3.04 1.53,3.08 3.05,6.17 4.71,9.18 10e-4,0.002 0.003,0.004 0.004,0.006 1.9,3.47 3.93,6.86 6.02,10.2 0.329,0.529 0.616,1.08 0.95,1.61 2.06,3.25 4.28,6.39 6.55,9.51 0.43,0.591 0.805,1.22 1.24,1.81 9.6e-4,10e-4 0.003,9.3e-4 0.004,0.002 0.0264,0.0353 0.0478,0.074 0.0743,0.109 1.11,1.55 3.18,2.22 5.32,2.13 2.13,0.0843 4.21,-0.586 5.32,-2.13 0.0256,-0.0341 0.0468,-0.0712 0.0723,-0.105 0.002,-0.002 0.006,-0.003 0.008,-0.006 0.846,-1.13 1.58,-2.33 2.4,-3.48 1.84,-2.58 3.69,-5.15 5.39,-7.83 0.334,-0.526 0.621,-1.08 0.95,-1.61 2.09,-3.36 4.12,-6.75 6.02,-10.2 0.356,-0.65 0.665,-1.33 1.01,-1.98 1.81,-3.39 3.59,-6.8 5.26,-10.3 1.99,-4.13 3.87,-8.31 5.68,-12.5 0.002,-0.004 0.004,-0.008 0.006,-0.0117 0.002,-0.005 0.004,-0.009 0.006,-0.0137 0.351,-0.761 0.704,-1.46 1.06,-2.23 0.305,-0.728 0.559,-1.48 0.86,-2.21 10e-4,-0.003 0.003,-0.007 0.004,-0.01 0.004,-0.01 0.008,-0.0195 0.0117,-0.0293 0.366,-0.88 0.777,-1.74 1.14,-2.63 1.27,-3.13 2.4,-6.32 3.59,-9.48 0.279,-0.737 0.555,-1.47 0.838,-2.21 0.622,-1.62 1.25,-3.23 1.84,-4.86 1.57,-4.36 3.03,-8.76 4.48,-13.2 0.72,-2.19 1.49,-4.36 2.18,-6.56 1.42,-4.53 2.74,-9.09 4.06,-13.6 0.605,-2.1 1.26,-4.18 1.84,-6.28 0.382,-1.38 0.718,-2.76 1.09,-4.14 1.42,-5.24 2.84,-10.5 4.15,-15.7 12.7,12.7 25.4,25.5 38,38.4 0.0293,0.0299 0.0587,0.0598 0.0879,0.0898 2.81,2.88 5.64,5.74 8.44,8.64 0.009,0.01 0.0181,0.0197 0.0274,0.0293 0.908,0.975 1.85,1.91 2.79,2.85 0.0336,0.0335 0.0661,0.068 0.0997,0.101 l 0.002,0.002 c 0.117,0.121 0.235,0.24 0.352,0.361 0.253,0.249 0.537,0.483 0.799,0.728 0.006,0.006 0.0131,0.0116 0.0195,0.0176 0.0525,0.0485 0.106,0.0956 0.158,0.144 0.302,0.282 0.598,0.569 0.915,0.833 0.002,0.002 0.004,0.002 0.006,0.004 7.1e-4,5.9e-4 10e-4,0.001 0.002,0.002 0.894,0.758 1.84,1.45 2.84,2.04 0.002,9.2e-4 0.002,0.003 0.004,0.004 0.013,0.008 0.024,0.0174 0.0371,0.0254 0.0598,0.0405 0.137,0.0486 0.197,0.0878 0.008,0.004 0.0161,0.007 0.0235,0.0117 0.779,0.442 1.59,0.817 2.43,1.1 5.7e-4,1.8e-4 10e-4,-1.9e-4 0.002,0 0.22,0.0701 0.444,0.104 0.665,0.152 0.221,0.0483 0.437,0.113 0.665,0.154 6.3e-4,1.2e-4 10e-4,-1.2e-4 0.002,0 0.369,0.0741 0.715,0.215 1.1,0.25 0.345,0.0363 0.688,-0.0331 1.03,-0.0351 0.266,-0.004 0.519,-0.002 0.784,-0.0254 0.887,-0.0783 1.75,-0.273 2.58,-0.585 0.209,-0.0752 0.427,-0.108 0.629,-0.197 0.0907,-0.041 0.172,-0.0929 0.262,-0.137 8.2e-4,-3.9e-4 10e-4,-0.002 0.002,-0.002 0.32,-0.153 0.598,-0.38 0.897,-0.572 0.298,-0.191 0.617,-0.345 0.895,-0.572 7.3e-4,-5.8e-4 0.001,-10e-4 0.002,-0.002 0.119,-0.0951 0.238,-0.182 0.352,-0.283 0.0913,-0.0827 0.197,-0.143 0.285,-0.23 3.7e-4,-3.6e-4 0.002,3.6e-4 0.002,0 0.198,-0.194 0.31,-0.445 0.489,-0.652 0.279,-0.319 0.607,-0.593 0.838,-0.952 0.118,-0.169 0.175,-0.363 0.281,-0.537 0.163,-0.276 0.302,-0.559 0.442,-0.847 0.208,-0.423 0.356,-0.866 0.514,-1.31 0.0753,-0.209 0.184,-0.406 0.246,-0.621 7.6e-4,-0.003 10e-4,-0.005 0.002,-0.008 0.0782,-0.265 0.148,-0.527 0.211,-0.796 4.4e-4,-0.002 0.002,-0.004 0.002,-0.006 0.144,-0.642 0.25,-1.29 0.315,-1.95 0.037,-0.352 0.082,-0.694 0.0977,-1.05 3e-5,-6.5e-4 -3e-5,-10e-4 0,-0.002 0.0467,-1.03 0.0423,-2.06 -0.0274,-3.06 -0.0373,-2.37 -0.0122,-4.74 -0.0137,-7.11 -0.0486,-26.2 -0.008,-52.5 -0.0508,-78.7 0.0119,-0.191 -0.032,-0.381 -0.0254,-0.572 -0.003,-0.891 10e-4,-1.78 -0.002,-2.67 -0.0251,-0.241 -0.114,-0.464 -0.149,-0.703 -8e-5,-6.3e-4 9e-5,-10e-4 0,-0.002 -0.07,-0.531 -0.214,-1.04 -0.326,-1.57 -10e-4,-0.006 -0.004,-0.0115 -0.006,-0.0176 -0.186,-0.814 -0.375,-1.63 -0.649,-2.41 -0.0735,-0.207 -0.0892,-0.43 -0.17,-0.634 -0.149,-0.36 -0.337,-0.7 -0.494,-1.06 -0.331,-0.782 -0.694,-1.54 -1.08,-2.3 -0.99,-1.98 -2.08,-3.9 -3.25,-5.78 -0.0389,-0.064 -0.0726,-0.133 -0.111,-0.197 -1.63,-2.59 -3.34,-5.13 -5.11,-7.62 -1.77,-2.49 -3.6,-4.94 -5.47,-7.37 -1.33,-1.75 -2.72,-3.44 -4.09,-5.16 -1.37,-1.72 -2.7,-3.47 -4.09,-5.17 -0.409,-0.507 -0.804,-1.03 -1.21,-1.53 -3.76,-4.59 -7.61,-9.11 -11.5,-13.5 0.01,-0.0494 0.0179,-0.0989 0.0274,-0.148 0.458,-2.36 0.891,-4.73 1.32,-7.09 0.291,-1.65 0.537,-3.31 0.813,-4.96 0.332,-1.97 0.659,-3.95 0.969,-5.92 0.386,-2.46 0.739,-4.93 1.09,-7.4 0.0645,-0.453 0.137,-0.905 0.201,-1.36 9.1e-4,-0.006 0.001,-0.013 0.002,-0.0195 0.275,-1.95 0.565,-3.9 0.819,-5.85 0.003,-0.0247 0.005,-0.0495 0.008,-0.0742 0.519,-3.97 0.986,-7.94 1.42,-11.9 0.0125,-0.115 0.026,-0.229 0.0391,-0.343 0.0244,-0.224 0.0515,-0.448 0.0782,-0.671 0.056,-0.471 0.112,-0.941 0.162,-1.41 0.524,-4.97 0.996,-9.94 1.39,-14.9 0.008,-0.105 0.0138,-0.209 0.0215,-0.314 0.005,-0.0626 0.0126,-0.125 0.0176,-0.187 0.0962,-1.28 0.17,-2.57 0.262,-3.86 0.21,-2.95 0.42,-5.9 0.598,-8.85 0.0876,-1.48 0.135,-2.95 0.209,-4.43 0.134,-2.62 0.292,-5.23 0.369,-7.85 0.006,-0.277 -0.0148,-0.556 -0.01,-0.833 0.0134,-0.499 0.0514,-0.996 0.0625,-1.49 0.0369,-3.74 -0.0557,-7.48 -0.203,-11.2 -0.0599,-1.72 -0.15,-3.43 -0.246,-5.14 -0.0639,-1.06 -0.167,-2.11 -0.244,-3.16 -0.339,-4.87 -0.809,-9.73 -1.44,-14.6 -0.0512,-0.406 -0.0684,-0.818 -0.121,-1.22 -0.167,-1.25 -0.398,-2.49 -0.584,-3.73 -0.003,-0.0169 -0.005,-0.0338 -0.008,-0.0507 -0.592,-3.93 -1.27,-7.84 -2.05,-11.7 -0.0109,-0.0547 -0.0224,-0.109 -0.0332,-0.164 -0.002,-0.01 -0.004,-0.0195 -0.006,-0.0293 -0.434,-2.17 -0.856,-4.34 -1.35,-6.5 -0.22,-0.969 -0.373,-1.95 -0.604,-2.92 -0.451,-1.89 -1.01,-3.75 -1.5,-5.63 -0.197,-0.744 -0.393,-1.49 -0.596,-2.23 -0.83,-3.03 -1.7,-6.05 -2.65,-9.05 -0.002,-0.006 -0.004,-0.0117 -0.006,-0.0176 -0.133,-0.424 -0.277,-0.845 -0.412,-1.27 -0.006,-0.0202 -0.0131,-0.0403 -0.0195,-0.0605 -1.53,-4.79 -3.2,-9.53 -5.01,-14.2 -0.809,-2.1 -1.74,-4.16 -2.61,-6.24 -1.05,-2.54 -2.04,-5.1 -3.17,-7.6 -0.0249,-0.0553 -0.0496,-0.111 -0.0743,-0.166 -0.009,-0.0205 -0.0161,-0.042 -0.0254,-0.0624 -0.218,-0.483 -0.422,-0.971 -0.643,-1.45 -0.007,-0.0159 -0.0162,-0.031 -0.0235,-0.0468 -1.25,-2.72 -2.56,-5.41 -3.9,-8.09 -0.235,-0.469 -0.447,-0.948 -0.684,-1.41 -0.162,-0.32 -0.341,-0.632 -0.504,-0.95 -1.3,-2.53 -2.63,-5.05 -4,-7.54 -0.0516,-0.0936 -0.0988,-0.189 -0.15,-0.283 -0.382,-0.691 -0.778,-1.37 -1.16,-2.06 -2.27,-4.03 -4.63,-7.99 -7.09,-11.9 -1.31,-2.08 -2.72,-4.11 -4.08,-6.16 -1.18,-1.77 -2.31,-3.58 -3.53,-5.33 -0.0307,-0.0442 -0.0612,-0.0885 -0.0919,-0.133 -0.0148,-0.0212 -0.0282,-0.0432 -0.043,-0.0644 -0.63,-0.904 -1.24,-1.82 -1.88,-2.72 -0.492,-0.688 -0.948,-1.4 -1.45,-2.08 -0.922,-1.26 -1.9,-2.48 -2.85,-3.72 -0.909,-1.21 -1.83,-2.41 -2.75,-3.6 -0.112,-0.144 -0.22,-0.29 -0.332,-0.433 -1.37,-1.76 -2.76,-3.51 -4.18,-5.24 -1.06,-1.3 -2.15,-2.58 -3.23,-3.87 -1.54,-1.83 -3.09,-3.66 -4.68,-5.45 -0.915,-1.03 -1.86,-2.03 -2.79,-3.05 -0.0773,-0.0841 -0.155,-0.167 -0.233,-0.252 -1.21,-1.32 -2.45,-2.6 -3.68,-3.91 -1.06,-1.12 -2.1,-2.27 -3.18,-3.37 -2.36,-2.42 -4.77,-4.8 -7.24,-7.12 -2.16,-2.29 -4.55,-4.39 -6.94,-6.35 -0.0366,-0.0335 -0.0767,-0.0641 -0.113,-0.0976 -2.39,-2.18 -4.9,-4.31 -7.66,-5.96 -3.8e-4,-2.9e-4 -0.002,2.9e-4 -0.002,0 z m 0,118 c 0.765,-9.3e-4 1.53,0.0828 2.29,0.129 0.005,3.2e-4 0.0104,-3.2e-4 0.0156,0 0.629,0.0369 1.26,0.055 1.88,0.115 0.0779,0.008 0.157,0.004 0.235,0.0137 6.5e-4,8e-5 10e-4,-8e-5 0.002,0 0.562,0.0666 1.11,0.201 1.67,0.295 0.955,0.161 1.92,0.3 2.86,0.537 0.074,0.0183 0.145,0.0476 0.219,0.0663 1.91,0.493 3.77,1.15 5.58,1.95 1.8,0.797 3.54,1.73 5.21,2.79 0.614,0.392 1.23,0.782 1.82,1.21 7.3e-4,5.3e-4 10e-4,0.001 0.002,0.002 0.631,0.455 1.24,0.943 1.84,1.44 0.616,0.506 1.22,1.02 1.8,1.57 l 0.004,0.004 c 0.495,0.463 0.967,0.952 1.43,1.44 0.586,0.608 1.11,1.27 1.64,1.92 0.24,0.294 0.505,0.566 0.739,0.865 0.003,0.003 0.005,0.006 0.008,0.01 0.446,0.576 0.924,1.12 1.33,1.73 0.91,1.32 1.72,2.71 2.45,4.14 0.206,0.4 0.41,0.801 0.6,1.21 0.716,1.54 1.33,3.13 1.84,4.75 0.121,0.394 0.224,0.793 0.332,1.19 0.458,1.68 0.825,3.38 1.04,5.11 0.0282,0.222 0.0336,0.447 0.0586,0.669 0.0927,0.823 0.184,1.65 0.219,2.47 1.6e-4,0.004 -1.7e-4,0.008 0,0.0117 0.0484,1.16 0.0442,2.31 -0.0156,3.47 -3e-5,6.5e-4 4e-5,10e-4 0,0.002 -0.0599,1.15 -0.176,2.31 -0.346,3.45 -0.174,1.25 -0.421,2.5 -0.729,3.72 -0.005,0.0193 -0.007,0.0392 -0.0117,0.0585 -0.262,1.03 -0.595,2.05 -0.948,3.05 -0.067,0.192 -0.11,0.391 -0.18,0.582 -0.439,1.19 -0.94,2.36 -1.5,3.49 -0.0505,0.103 -0.111,0.202 -0.162,0.304 -0.499,0.995 -1.04,1.97 -1.62,2.92 -0.174,0.28 -0.368,0.548 -0.549,0.824 -0.47,0.718 -0.958,1.42 -1.48,2.11 -0.28,0.372 -0.58,0.728 -0.874,1.09 -0.512,0.626 -1.03,1.24 -1.59,1.84 -6.2e-4,6.8e-4 -10e-4,10e-4 -0.002,0.002 -0.0761,0.0815 -0.157,0.158 -0.235,0.238 -0.233,0.241 -0.468,0.48 -0.706,0.716 l -0.004,0.004 c -0.549,0.547 -1.11,1.08 -1.69,1.59 -0.003,0.003 -0.007,0.005 -0.01,0.008 -0.373,0.327 -0.757,0.641 -1.14,0.952 -0.519,0.418 -1.05,0.819 -1.59,1.21 -0.0861,0.062 -0.167,0.13 -0.254,0.191 -0.421,0.298 -0.846,0.59 -1.28,0.87 -0.002,0.002 -0.005,0.002 -0.008,0.004 -0.448,0.294 -0.901,0.578 -1.36,0.851 -0.606,0.357 -1.22,0.693 -1.85,1.01 -0.4,0.206 -0.799,0.414 -1.21,0.605 -0.214,0.101 -0.436,0.184 -0.653,0.279 -0.43,0.188 -0.86,0.379 -1.3,0.554 -7.8e-4,3.2e-4 -10e-4,0.002 -0.002,0.002 -0.435,0.174 -0.866,0.358 -1.31,0.515 -0.646,0.232 -1.3,0.428 -1.96,0.623 -0.458,0.136 -0.913,0.284 -1.38,0.402 -0.271,0.0687 -0.55,0.109 -0.823,0.172 -1.84,0.424 -3.71,0.709 -5.59,0.851 -0.382,0.0294 -0.761,0.0666 -1.14,0.0839 -0.543,0.0243 -1.09,0.0275 -1.63,0.0273 -0.544,1.9e-4 -1.09,-0.003 -1.63,-0.0273 -0.381,-0.0172 -0.763,-0.0545 -1.14,-0.0839 -6.4e-4,-5e-5 -10e-4,5e-5 -0.002,0 -1.88,-0.142 -3.75,-0.427 -5.59,-0.851 -10e-4,-2.9e-4 -0.003,2.8e-4 -0.004,0 -0.272,-0.0622 -0.548,-0.103 -0.819,-0.172 -0.461,-0.117 -0.914,-0.265 -1.37,-0.4 -0.001,-4e-4 -0.003,-0.002 -0.004,-0.002 -0.658,-0.195 -1.32,-0.391 -1.96,-0.623 -0.441,-0.158 -0.872,-0.341 -1.31,-0.515 -7.9e-4,-3.2e-4 -0.001,-0.002 -0.002,-0.002 -0.653,-0.263 -1.3,-0.53 -1.94,-0.829 -0.003,-10e-4 -0.005,-0.003 -0.008,-0.004 -0.203,-0.0952 -0.4,-0.199 -0.6,-0.301 -0.199,-0.101 -0.4,-0.198 -0.598,-0.301 -0.003,-0.001 -0.005,-0.003 -0.008,-0.004 -0.167,-0.0859 -0.327,-0.183 -0.493,-0.271 -0.454,-0.241 -0.909,-0.483 -1.35,-0.744 -4.7e-4,-2.8e-4 -10e-4,2.8e-4 -0.002,0 -0.385,-0.228 -0.762,-0.468 -1.14,-0.71 -0.0742,-0.0479 -0.151,-0.0921 -0.225,-0.141 -10e-4,-7.8e-4 -0.003,-0.001 -0.004,-0.002 -7.5e-4,-4.9e-4 -0.001,-10e-4 -0.002,-0.002 -0.436,-0.283 -0.862,-0.576 -1.29,-0.876 -0.628,-0.443 -1.24,-0.909 -1.84,-1.39 -7.1e-4,-5.8e-4 -10e-4,-0.001 -0.002,-0.002 -0.386,-0.311 -0.768,-0.626 -1.14,-0.952 -0.585,-0.513 -1.15,-1.05 -1.7,-1.6 l -0.006,-0.006 c -0.0144,-0.0143 -0.0286,-0.0286 -0.043,-0.0429 -0.302,-0.3 -0.603,-0.598 -0.893,-0.909 -0.553,-0.592 -1.08,-1.21 -1.59,-1.84 -0.294,-0.36 -0.594,-0.717 -0.874,-1.09 -0.515,-0.68 -1,-1.38 -1.47,-2.09 -0.003,-0.004 -0.005,-0.008 -0.008,-0.0117 -0.182,-0.275 -0.375,-0.544 -0.549,-0.824 -0.585,-0.946 -1.13,-1.92 -1.62,-2.92 -0.0515,-0.103 -0.112,-0.201 -0.162,-0.304 -0.558,-1.14 -1.06,-2.3 -1.5,-3.49 -0.0703,-0.19 -0.113,-0.39 -0.18,-0.582 -0.353,-1.01 -0.686,-2.02 -0.948,-3.05 -0.005,-0.0193 -0.007,-0.0392 -0.0117,-0.0585 -0.308,-1.23 -0.555,-2.47 -0.729,-3.72 -0.341,-2.29 -0.458,-4.61 -0.362,-6.92 1.7e-4,-0.004 -1.6e-4,-0.008 0,-0.0117 4.1e-4,-0.01 0.002,-0.0195 0.002,-0.0293 0.0352,-0.817 0.125,-1.63 0.217,-2.45 0.0251,-0.223 0.0304,-0.447 0.0586,-0.669 8e-5,-6.3e-4 -8e-5,-10e-4 0,-0.002 0.0367,-0.292 0.131,-0.574 0.176,-0.865 0.221,-1.43 0.488,-2.85 0.868,-4.24 0.108,-0.398 0.211,-0.796 0.332,-1.19 0.501,-1.62 1.12,-3.21 1.83,-4.75 0.19,-0.407 0.396,-0.808 0.602,-1.21 0.73,-1.43 1.54,-2.82 2.45,-4.14 0.408,-0.605 0.887,-1.15 1.33,-1.73 0.003,-0.003 0.005,-0.006 0.008,-0.01 5.6e-4,-7.2e-4 10e-4,-10e-4 0.002,-0.002 0.233,-0.298 0.497,-0.57 0.737,-0.863 0.534,-0.653 1.06,-1.31 1.64,-1.92 0.003,-0.003 0.005,-0.007 0.008,-0.01 0.23,-0.241 0.473,-0.471 0.708,-0.708 0.239,-0.242 0.473,-0.491 0.721,-0.724 0.583,-0.546 1.19,-1.07 1.8,-1.57 0.601,-0.494 1.21,-0.981 1.84,-1.44 0.586,-0.424 1.2,-0.813 1.81,-1.2 0.003,-0.002 0.007,-0.004 0.01,-0.006 10e-4,-7.7e-4 0.003,-10e-4 0.004,-0.002 0.285,-0.181 0.602,-0.304 0.891,-0.478 1.4,-0.843 2.82,-1.65 4.32,-2.31 1.8,-0.797 3.67,-1.45 5.58,-1.95 0.0739,-0.0187 0.145,-0.048 0.219,-0.0663 0.933,-0.235 1.89,-0.372 2.83,-0.533 0.004,-6.5e-4 0.008,-0.001 0.0117,-0.002 0.003,-5.6e-4 0.007,-0.001 0.01,-0.002 0.559,-0.0921 1.11,-0.228 1.67,-0.295 0.0706,-0.008 0.142,-0.007 0.213,-0.0137 0.639,-0.0628 1.28,-0.077 1.93,-0.115 0.763,-0.0469 1.52,-0.13 2.29,-0.129 z"
         fill="#ffffff"
         stop-color="#000000"
         style="font-variation-settings:normal"
         id="path169" /><path
         id="path171"
         style="font-variation-settings:normal;fill:url(#linearGradient8600);fill-opacity:1"
         d="m 603.91611,626.85395 c 9.91664,42.90232 27.32526,102.43578 54.08294,138.54681 h 0.003 c 26.82772,-36.00717 44.23175,-95.60024 54.12742,-138.54363 -0.21548,-0.006 -0.43261,-0.0129 -0.64808,-0.0191 -8.89999,-0.243 -17.82421,-0.50463 -26.7492,-0.72351 -8.92499,-0.21887 -17.84921,-0.39384 -26.7492,-0.46534 h -0.003 c -8.89999,0.07 -17.80176,0.24597 -26.71425,0.46534 -8.91249,0.21938 -17.83733,0.48101 -26.78732,0.72351 -0.18776,0.005 -0.37455,0.0109 -0.56231,0.0159 z" /><path
         d="m 658,248 c 0,0 -5.88,4.57 -14.7,13.4 -6.62,6.6 -14.9,15.6 -23.6,26.8 -21.7,28 -46,70.1 -53.5,124 -0.5,3.59 -0.925,7.22 -1.27,10.9 -0.689,7.38 -1.06,15 -1.06,22.8 0,0 0.0448,2.37 0.168,6.04 0.0381,1.18 0.0935,1.93 0.16,3.49 0.159,3.88 0.464,8.72 0.891,14.7 0.2,2.8 0.381,5.26 0.66,8.46 1.43,16.6 3.97,37.8 8.66,60.9 10e-4,0.007 0.002,0.0142 0.004,0.0215 -2.44,2.39 -38.1,42.9 -38.4,53.5 v 88.5 c 0,0 -1.77,12.7 8.49,1.77 10.26,-10.93 51.3,-52 51.3,-52 0,0 4.83,-5.78 13.9,-6.01 h 96.8 c 9.03,0.234 13.9,6.01 13.9,6.01 0,0 41,41 51.3,52 10.3,11 8.49,-1.77 8.49,-1.77 v -88.5 c -0.342,-10.6 -36,-51.2 -38.4,-53.5 10e-4,-0.007 0.002,-0.0144 0.004,-0.0215 4.69,-23.1 7.23,-44.2 8.66,-60.9 0.279,-3.19 0.46,-5.65 0.66,-8.46 0.427,-6.01 0.732,-10.9 0.891,-14.7 0.0667,-1.56 0.122,-2.32 0.16,-3.49 0.123,-3.67 0.168,-6.04 0.168,-6.04 0,-11.7 -0.827,-22.9 -2.33,-33.7 -5.5,-39.4 -20,-72.6 -36,-98.5 -14.5,-23.6 -30.1,-41.2 -41.1,-52.2 -2.21,-2.2 -4.23,-4.14 -6.02,-5.8 h -0.002 c -1.79,-1.67 -3.35,-3.06 -4.64,-4.18 h -0.002 c -2.57,-2.24 -4.04,-3.38 -4.04,-3.38 z m -0.0215,99.5 c 24.9,1.3e-4 45.2,20.2 45.2,45.2 -1.2e-4,24.9 -20.2,45.2 -45.2,45.2 -24.9,-1.2e-4 -45.2,-20.2 -45.2,-45.2 1.2e-4,-24.9 20.2,-45.2 45.2,-45.2 z"
         fill="url(#linearGradient1204)"
         id="path173"
         style="fill:url(#linearGradient1204)" /><path
         style="fill:url(#linearGradient1206)"
         d="m 658,248 c 0,0 -94.1,73.1 -94.1,198 0,0 0.0568,2.72 0.234,7.09 0.137,3.59 0.347,7.61 0.787,14 0.182,2.64 0.401,5.37 0.656,8.41 0.102,1.21 0.172,2.25 0.287,3.52 0.411,4.55 0.908,9.44 1.51,14.6 0.141,1.22 0.328,2.54 0.48,3.8 0.497,4.09 1.04,8.27 1.68,12.6 0.285,1.98 0.609,3.99 0.924,6.02 0.355,2.29 0.655,4.5 1.05,6.85 0.32,1.9 0.717,3.89 1.06,5.82 0.411,2.29 0.806,4.54 1.26,6.87 0.218,1.13 0.436,2.24 0.664,3.38 0.898,4.46 1.85,8.96 2.9,13.5 1.16,5.02 2.47,10.1 3.85,15.1 0.519,1.91 1.04,3.81 1.59,5.72 0.304,1.05 0.602,2.11 0.916,3.16 1.01,3.4 2.06,6.78 3.18,10.2 0.0144,0.0434 0.0266,0.0874 0.041,0.131 0.0139,0.0419 0.0291,0.0831 0.043,0.125 1.11,3.35 2.3,6.68 3.53,9.99 0.143,0.387 0.267,0.782 0.412,1.17 0.413,1.1 0.857,2.19 1.28,3.28 0.403,1.04 0.798,2.08 1.21,3.11 0.694,1.72 1.42,3.43 2.15,5.13 0.382,0.895 0.749,1.8 1.14,2.69 0.0688,0.156 0.132,0.317 0.201,0.473 1.06,2.4 2.16,4.78 3.3,7.13 1.13,2.35 2.3,4.71 3.51,6.99 6.5e-4,-2e-5 10e-4,2e-5 0.002,0 0.244,-0.007 0.488,-0.0129 0.732,-0.0195 17.9,-0.485 35.7,-1.05 53.5,-1.19 10e-4,-10e-6 0.003,10e-6 0.004,0 17.8,0.143 35.7,0.704 53.5,1.19 0.244,0.007 0.488,0.0129 0.732,0.0195 6.5e-4,2e-5 10e-4,-2e-5 0.002,0 1.21,-2.28 2.38,-4.64 3.51,-6.99 1.13,-2.35 2.23,-4.73 3.3,-7.13 0.0691,-0.156 0.132,-0.316 0.201,-0.473 0.391,-0.888 0.759,-1.79 1.14,-2.69 0.727,-1.7 1.45,-3.41 2.15,-5.13 0.415,-1.03 0.81,-2.07 1.21,-3.11 0.426,-1.1 0.87,-2.18 1.28,-3.28 0.145,-0.386 0.269,-0.781 0.412,-1.17 1.22,-3.31 2.41,-6.64 3.53,-9.99 0.0283,-0.0852 0.0557,-0.171 0.084,-0.256 1.12,-3.37 2.16,-6.76 3.18,-10.2 0.317,-1.06 0.617,-2.12 0.924,-3.19 0.542,-1.88 1.05,-3.76 1.56,-5.64 1.38,-5.08 2.69,-10.2 3.86,-15.2 1.06,-4.55 2,-9.05 2.9,-13.5 0.228,-1.13 0.446,-2.25 0.664,-3.38 0.451,-2.33 0.846,-4.58 1.26,-6.87 0.347,-1.93 0.744,-3.92 1.06,-5.82 0.395,-2.35 0.695,-4.55 1.05,-6.85 0.315,-2.03 0.639,-4.04 0.924,-6.02 0.631,-4.38 1.18,-8.56 1.68,-12.6 0.153,-1.25 0.34,-2.57 0.48,-3.8 0.6,-5.21 1.1,-10.1 1.51,-14.6 0.115,-1.27 0.185,-2.31 0.287,-3.52 0.255,-3.04 0.474,-5.77 0.656,-8.41 0.44,-6.36 0.65,-10.4 0.787,-14 0.178,-4.37 0.234,-7.09 0.234,-7.09 0,-125 -94.1,-198 -94.1,-198 z m 0,100 c 24.9,1.3e-4 45.2,20.2 45.2,45.2 -1.1e-4,24.9 -20.2,45.2 -45.2,45.2 -24.9,-1.2e-4 -45.2,-20.2 -45.2,-45.2 C 612.80011,368.3 633,348 658,348 Z"
         id="path175" /></g><g
       transform="matrix(1.1090433,0,0,1.098388,-56.403304,-22.956657)"
       id="g187"><path
         d="m 511,213 c -2.71,0.0841 -4.83,1.98 -6.94,3.46 -3.34,2.54 -6.46,5.35 -9.59,8.14 -11.4,10.8 -22.2,22.3 -31.9,34.7 -3.79,4.83 -7.54,9.7 -10.9,14.8 -4.97,7.35 -9.85,14.8 -14.2,22.5 -5.69,9.97 -10.8,20.3 -15.1,30.9 -2.99,7.04 -5.73,14.2 -8.02,21.5 -2.21,6.94 -4.23,13.9 -5.87,21 -2.58,11.8 -4.67,23.7 -5.67,35.7 -1.11,12.1 -1.47,24.4 -0.645,36.5 1.06,21.3 3.33,42.6 6.71,63.7 0.659,4.17 1.37,8.32 2.12,12.5 -8.95,10.3 -17.6,21 -25.5,32.1 -3.87,5.56 -7.54,11.3 -10,17.7 -1.06,3.19 -1.81,6.53 -1.69,9.91 -0.0725,29.1 -0.003,58.2 -0.111,87.3 -0.287,5.72 1.14,11.8 4.99,16.1 1.46,1.89 3.54,3.15 5.65,4.19 4.61,2.14 10.1,2.19 14.8,0.209 4.73,-1.85 8.4,-5.51 11.9,-9.09 5.64,-5.85 11.4,-11.6 17,-17.4 6.72,-6.84 13.5,-13.7 20.2,-20.5 2.49,9.28 5.16,18.5 8.05,27.7 2.94,9.11 5.99,18.2 9.44,27.1 2.11,5.64 4.25,11.3 6.77,16.7 2.23,4.83 4.29,9.74 6.7,14.5 3.67,7.48 7.66,14.8 12.1,21.8 2.81,4.55 5.96,8.9 9.08,13.2 2.79,3.36 7.27,4.93 11.6,4.79 4.41,0.007 8.98,-1.85 11.5,-5.55 1.62,-2.25 3.12,-4.59 4.78,-6.82 5.13,-7.43 9.61,-15.3 13.7,-23.3 4.17,-8.15 7.94,-16.5 11.5,-24.9 2.52,-6.22 4.85,-12.5 7.16,-18.8 2.78,-7.75 5.36,-15.6 7.8,-23.4 2.29,-7.65 4.55,-15.3 6.6,-23 13.5,13.6 26.9,27.4 40.4,41.1 3.56,3.47 7.94,6.31 12.9,7.15 3.79,0.665 7.78,-0.0135 11.2,-1.73 1.99,-1.08 3.96,-2.33 5.3,-4.2 3.62,-4.27 4.93,-10 4.74,-15.5 -0.14,-8.52 -0.0362,-17 -0.0761,-25.6 -0.0219,-21.4 0.01,-42.8 -0.0814,-64.1 -0.149,-2.88 -0.946,-5.69 -1.88,-8.4 -1.42,-3.58 -3.33,-6.94 -5.3,-10.2 -5.47,-8.88 -12,-17 -18.5,-25.2 -3.75,-4.67 -7.55,-9.29 -11.5,-13.8 4.43,-24.5 7.4,-49.3 8.72,-74.2 0.518,-8.35 0.756,-16.7 0.359,-25.1 -0.435,-9.99 -1.35,-20 -2.89,-29.8 -1.35,-8.27 -2.89,-16.5 -4.97,-24.6 -3.3,-12.6 -7.33,-25 -12.5,-36.9 -3.09,-7.65 -6.61,-15.1 -10.5,-22.4 -5.09,-9.72 -10.8,-19.1 -16.9,-28.2 -3.93,-6.03 -8.21,-11.8 -12.7,-17.5 -9.91,-12.7 -20.9,-24.5 -32.6,-35.5 -2.92,-2.54 -5.79,-5.15 -8.84,-7.52 -1.78,-1.34 -3.66,-2.55 -5.58,-3.69 -0.957,-0.004 -1.91,-0.013 -2.87,0.002 z m 2.28,134 c 4.74,0.264 9.39,1.74 13.4,4.24 5.19,3.16 9.36,7.99 11.7,13.6 0.192,0.46 0.487,1.25 0.694,1.85 1.7,5.03 2.07,10.5 0.911,15.7 -0.0689,0.318 -0.233,1 -0.365,1.46 -0.682,2.46 -1.69,4.83 -2.98,7.03 -0.276,0.482 -0.748,1.23 -1.14,1.79 -4.87,7.09 -13,11.9 -21.6,12.5 -8.91,0.769 -18.1,-2.85 -24,-9.58 -5.6,-6.15 -8.36,-14.8 -7.24,-23 0.717,-5.86 3.23,-11.5 7.2,-15.9 3.19,-3.67 7.42,-6.31 11.9,-8.07 3.65,-1.31 7.58,-1.86 11.4,-1.64 z"
         fill="#ffffff"
         stop-color="#000000"
         style="font-variation-settings:normal"
         id="path179" /><path
         d="m 512,544 -64.3,13.4 c 0,0 19.1,129 64.3,190 2.1e-4,2.9e-4 0.002,-3e-4 0.002,0 45.2,-60.9 64.3,-190 64.3,-190 l -64.3,-13.4 z"
         fill="#ba1a1a"
         stop-color="#000000"
         style="font-variation-settings:normal;fill:url(#linearGradient5570);fill-opacity:1"
         id="path181" /><path
         d="m 512,231 c 0,0 -5.88,4.57 -14.7,13.4 -6.61,6.61 -14.9,15.6 -23.6,26.8 -21.7,28.1 -46,70.1 -53.5,124 -0.499,3.59 -0.924,7.23 -1.27,10.9 -0.689,7.38 -1.06,15 -1.06,22.8 0,0 0.0448,2.37 0.168,6.05 0.0381,1.18 0.0934,1.93 0.16,3.5 0.159,3.88 0.464,8.73 0.89,14.7 0.2,2.81 0.381,5.27 0.66,8.46 1.43,16.6 3.97,37.8 8.66,60.9 10e-4,0.007 0.002,0.0142 0.004,0.0215 -2.44,2.39 -38.1,43 -38.4,53.6 v 88.5 c 0,0 -1.77,12.7 8.48,1.77 10.25,-10.93 51.2,-52 51.2,-52 0,0 4.82,-5.78 13.8,-6.02 h 96.7 c 9.02,0.234 13.8,6.02 13.8,6.02 0,0 41,41 51.2,52 10.2,11 8.48,-1.77 8.48,-1.77 v -88.5 c -0.341,-10.6 -36,-51.2 -38.4,-53.6 10e-4,-0.007 0.002,-0.0144 0.004,-0.0215 4.69,-23.1 7.22,-44.3 8.66,-60.9 0.279,-3.19 0.46,-5.66 0.66,-8.46 0.426,-6.02 0.731,-10.9 0.89,-14.7 0.0667,-1.56 0.122,-2.32 0.16,-3.5 0.123,-3.68 0.168,-6.05 0.168,-6.05 0,-11.7 -0.826,-22.9 -2.32,-33.7 -5.49,-39.5 -20,-72.6 -35.9,-98.6 -14.5,-23.6 -30.1,-41.2 -41.1,-52.2 -2.2,-2.2 -4.22,-4.14 -6.01,-5.81 h -0.002 c -1.79,-1.67 -3.35,-3.06 -4.64,-4.19 h -0.002 c -2.57,-2.24 -4.04,-3.39 -4.04,-3.39 z m -0.0215,99.6 c 24.9,1.3e-4 45.1,20.2 45.1,45.2 -1.2e-4,25 -20.2,45.2 -45.1,45.2 -24.9,-1.2e-4 -45.1,-20.2 -45.1,-45.2 1.2e-4,-25 20.2,-45.2 45.1,-45.2 z"
         fill="url(#linearGradient2947)"
         id="path183"
         style="fill:url(#linearGradient2947)" /><path
         d="m 512,230 c 0,0 -94,73.2 -94,198 0,0 0.0568,2.72 0.234,7.09 0.137,3.59 0.346,7.62 0.787,14 0.182,2.64 0.401,5.38 0.656,8.42 0.102,1.21 0.172,2.25 0.287,3.52 0.41,4.55 0.907,9.45 1.51,14.7 0.141,1.22 0.328,2.54 0.48,3.8 0.496,4.09 1.04,8.27 1.67,12.7 0.285,1.98 0.608,3.99 0.923,6.02 0.355,2.29 0.655,4.5 1.05,6.85 0.32,1.9 0.716,3.89 1.06,5.83 0.411,2.29 0.806,4.55 1.26,6.88 0.218,1.13 0.436,2.25 0.664,3.38 0.897,4.47 1.84,8.97 2.9,13.5 1.16,5.02 2.47,10.1 3.84,15.1 0.518,1.91 1.04,3.82 1.59,5.73 0.304,1.06 0.602,2.11 0.915,3.16 1.01,3.4 2.06,6.79 3.17,10.2 0.0144,0.0434 0.0266,0.0875 0.041,0.131 0.0139,0.0419 0.0291,0.0832 0.043,0.125 1.11,3.36 2.3,6.69 3.52,10 0.143,0.387 0.267,0.783 0.412,1.17 0.413,1.1 0.857,2.19 1.28,3.29 0.403,1.04 0.798,2.08 1.21,3.11 0.694,1.73 1.42,3.43 2.14,5.14 0.382,0.896 0.749,1.8 1.14,2.69 0.0688,0.156 0.132,0.317 0.201,0.473 1.06,2.4 2.16,4.78 3.29,7.13 1.13,2.35 2.3,4.71 3.51,7 6.5e-4,-2e-5 10e-4,2e-5 0.002,0 0.244,-0.007 0.488,-0.0129 0.732,-0.0195 17.8,-0.486 35.7,-1.05 53.5,-1.19 10e-4,-10e-6 0.003,1e-5 0.004,0 17.8,0.143 35.7,0.705 53.5,1.19 0.244,0.007 0.488,0.0129 0.732,0.0195 6.5e-4,2e-5 10e-4,-2e-5 0.002,0 1.21,-2.29 2.37,-4.65 3.51,-7 1.13,-2.35 2.23,-4.73 3.29,-7.13 0.069,-0.156 0.132,-0.317 0.201,-0.473 0.391,-0.889 0.758,-1.79 1.14,-2.69 0.727,-1.7 1.45,-3.41 2.14,-5.14 0.414,-1.03 0.809,-2.07 1.21,-3.11 0.426,-1.1 0.869,-2.18 1.28,-3.29 0.145,-0.386 0.269,-0.782 0.412,-1.17 1.22,-3.31 2.41,-6.64 3.52,-10 0.0283,-0.0853 0.0557,-0.171 0.0839,-0.256 1.12,-3.37 2.16,-6.76 3.17,-10.2 0.316,-1.06 0.617,-2.13 0.923,-3.19 0.542,-1.88 1.05,-3.76 1.56,-5.64 1.38,-5.08 2.69,-10.2 3.86,-15.2 1.06,-4.56 2,-9.06 2.9,-13.5 0.228,-1.13 0.445,-2.25 0.664,-3.38 0.451,-2.33 0.846,-4.59 1.26,-6.88 0.347,-1.94 0.744,-3.92 1.06,-5.83 0.395,-2.35 0.695,-4.56 1.05,-6.85 0.315,-2.03 0.638,-4.04 0.923,-6.02 0.63,-4.38 1.18,-8.57 1.67,-12.7 0.152,-1.26 0.339,-2.58 0.48,-3.8 0.6,-5.21 1.1,-10.1 1.51,-14.7 0.115,-1.27 0.185,-2.31 0.287,-3.52 0.255,-3.04 0.474,-5.78 0.656,-8.42 0.44,-6.37 0.65,-10.4 0.787,-14 0.177,-4.37 0.234,-7.09 0.234,-7.09 0,-125 -94,-198 -94,-198 z m 0,100 c 24.9,1.3e-4 45.1,20.2 45.1,45.2 -1.1e-4,25 -20.2,45.2 -45.1,45.2 -24.9,-1.2e-4 -45.1,-20.2 -45.1,-45.2 1.1e-4,-25 20.2,-45.2 45.1,-45.2 z"
         fill="url(#linearGradient1487)"
         id="path185"
         style="fill:url(#linearGradient1487)" /></g></g><sodipodi:namedview
     id="namedview193"
     pagecolor="#505050"
     bordercolor="#ffffff"
     borderopacity="1"
     inkscape:showpageshadow="0"
     inkscape:pageopacity="0"
     inkscape:pagecheckerboard="1"
     inkscape:deskcolor="#505050"
     showgrid="false"
     showguides="true"
     inkscape:zoom="0.45254834"
     inkscape:cx="-80.654367"
     inkscape:cy="649.65436"
     inkscape:window-width="1920"
     inkscape:window-height="1009"
     inkscape:window-x="-8"
     inkscape:window-y="-8"
     inkscape:window-maximized="1"
     inkscape:current-layer="svg191"><sodipodi:guide
       position="512,512"
       orientation="-1,0"
       id="guide563"
       inkscape:locked="false"
       inkscape:label=""
       inkscape:color="rgb(0,134,229)" /><sodipodi:guide
       position="512,512"
       orientation="0,1"
       id="guide565"
       inkscape:locked="false"
       inkscape:label=""
       inkscape:color="rgb(0,134,229)" /></sodipodi:namedview><defs
     id="defs71"><linearGradient
       id="linearGradient20389"><stop
         stop-color="#365bac"
         offset="0"
         id="stop20383"
         style="stop-color:#52dbcb;stop-opacity:1;" /><stop
         stop-color="#724c9f"
         offset=".5"
         id="stop20385" /><stop
         stop-color="#365bac"
         offset="1"
         id="stop20387"
         style="stop-color:#52dbcb;stop-opacity:1;" /></linearGradient><linearGradient
       id="linearGradient16001"><stop
         stop-color="#365bac"
         offset="0.5"
         id="stop15997"
         style="stop-color:#411b6d;stop-opacity:1;" /><stop
         stop-color="#006a61"
         offset="1"
         id="stop15999"
         style="stop-color:#dab9ff;stop-opacity:1;" /></linearGradient><linearGradient
       inkscape:collect="always"
       id="linearGradient14533"><stop
         style="stop-color:#ba1a1a;stop-opacity:1;"
         offset="0.5"
         id="stop14529" /><stop
         style="stop-color:#410002;stop-opacity:1;"
         offset="1"
         id="stop14531" /></linearGradient><linearGradient
       inkscape:collect="always"
       id="linearGradient8598"><stop
         style="stop-color:#ba1a1a;stop-opacity:1;"
         offset="0.5"
         id="stop8594" /><stop
         style="stop-color:#410002;stop-opacity:1;"
         offset="1"
         id="stop8596" /></linearGradient><linearGradient
       id="linearGradient7083"><stop
         stop-color="#365bac"
         offset="0.5"
         id="stop7079"
         style="stop-color:#002c71;stop-opacity:1;" /><stop
         stop-color="#006a61"
         offset="1"
         id="stop7081"
         style="stop-color:#b1c5ff;stop-opacity:1;" /></linearGradient><linearGradient
       inkscape:collect="always"
       id="linearGradient5568"><stop
         style="stop-color:#ba1a1a;stop-opacity:1;"
         offset="0.5"
         id="stop5564" /><stop
         style="stop-color:#690005;stop-opacity:1;"
         offset="1"
         id="stop5566" /></linearGradient><linearGradient
       id="linearGradient3372"><stop
         stop-color="#365bac"
         offset="0"
         id="stop3366"
         style="stop-color:#dab9ff;stop-opacity:1;" /><stop
         stop-color="#724c9f"
         offset="0.5"
         id="stop3368"
         style="stop-color:#593485;stop-opacity:1;" /><stop
         stop-color="#365bac"
         offset="1"
         id="stop3370"
         style="stop-color:#dab9ff;stop-opacity:1;" /></linearGradient><linearGradient
       id="linearGradient2945"><stop
         stop-color="#365bac"
         offset="0"
         id="stop2" /><stop
         stop-color="#724c9f"
         offset=".5"
         id="stop4" /><stop
         stop-color="#365bac"
         offset="1"
         id="stop6" /></linearGradient><linearGradient
       id="linearGradient1485"><stop
         stop-color="#365bac"
         offset="0.5"
         id="stop9"
         style="stop-color:#003732;stop-opacity:1;" /><stop
         stop-color="#006a61"
         offset="1"
         id="stop11"
         style="stop-color:#006a61;stop-opacity:1;" /></linearGradient><linearGradient
       id="linearGradient1487"
       x1="415"
       x2="603"
       y1="439"
       y2="439"
       gradientTransform="matrix(0.999,0,0,1,3.04,-20.2)"
       gradientUnits="userSpaceOnUse"
       xlink:href="#linearGradient7083" /><linearGradient
       id="linearGradient2947"
       x1="387"
       x2="631"
       y1="470"
       y2="470"
       gradientTransform="matrix(0.999,0,0,1,3.04,-20.2)"
       gradientUnits="userSpaceOnUse"
       xlink:href="#linearGradient3372" /><linearGradient
       id="linearGradient1204"
       x1="387"
       x2="631"
       y1="470"
       y2="470"
       gradientTransform="translate(149,-2.51)"
       gradientUnits="userSpaceOnUse"
       xlink:href="#linearGradient20389" /><linearGradient
       id="linearGradient1206"
       x1="415"
       x2="603"
       y1="439"
       y2="439"
       gradientTransform="translate(149,-2.51)"
       gradientUnits="userSpaceOnUse"
       xlink:href="#linearGradient1485" /><radialGradient
       id="radialGradient2038"
       cx="390"
       cy="495"
       r="724"
       gradientTransform="matrix(0.70718234,0,0,0.70750379,236.1989,161.59046)"
       gradientUnits="userSpaceOnUse"><stop
         stop-color="#dab9ff"
         offset="0.5"
         id="stop21243"
         style="stop-color:#52dbcb;stop-opacity:1;" /><stop
         stop-color="#dab9ff"
         offset="1"
         id="stop18"
         style="stop-color:#411b6d;stop-opacity:1;" /></radialGradient><clipPath
       id="clipPath4465"><path
         d="m0 807h712v-807h-712z"
         id="path23" /></clipPath><clipPath
       id="clipPath4473"><path
         d="m164 548h384v-384h-384z"
         id="path26" /></clipPath><clipPath
       id="clipPath4477"><path
         d="m164 548h384v-384h-384z"
         id="path29" /></clipPath><mask
       id="mask4479"
       x="0"
       y="0"
       width="1"
       height="1"
       maskUnits="userSpaceOnUse"><g
         clip-path="url(#clipPath4473)"
         id="g38"><path
           d="m164 548h384v-384h-384z"
           id="path32" /><g
           clip-path="url(#clipPath4477)"
           id="g36"><path
             d="m99.9 612h513v-513h-513z"
             fill="#fff"
             id="path34" /></g></g></mask><clipPath
       id="clipPath4503"><path
         d="m164 548h384v-384h-384z"
         id="path41" /></clipPath><clipPath
       id="clipPath4507"><path
         d="m164 548h384v-384h-384z"
         id="path44" /></clipPath><clipPath
       id="clipPath4511"><path
         d="m164 548h384v-384h-384z"
         id="path47" /></clipPath><clipPath
       id="clipPath4515"><path
         d="m164 548h384v-384h-384z"
         id="path50" /></clipPath><clipPath
       id="clipPath4519"><path
         d="m300 548h0.5v-384h-0.5z"
         id="path53" /></clipPath><clipPath
       id="clipPath4523"><path
         d="m356 548h0.5v-384h-0.5z"
         id="path56" /></clipPath><clipPath
       id="clipPath4527"><path
         d="m412 548h0.5v-384h-0.5z"
         id="path59" /></clipPath><clipPath
       id="clipPath4531"><path
         d="m164 412h384v-0.2h-384z"
         id="path62" /></clipPath><clipPath
       id="clipPath4535"><path
         d="m164 356h384v-0.2h-384z"
         id="path65" /></clipPath><clipPath
       id="clipPath4539"><path
         d="m164 300h384v-0.5h-384z"
         id="path68" /></clipPath><linearGradient
       inkscape:collect="always"
       xlink:href="#linearGradient2945"
       id="linearGradient503"
       gradientUnits="userSpaceOnUse"
       gradientTransform="translate(149,-2.51)"
       x1="387"
       y1="470"
       x2="631"
       y2="470" /><linearGradient
       inkscape:collect="always"
       xlink:href="#linearGradient16001"
       id="linearGradient505"
       gradientUnits="userSpaceOnUse"
       gradientTransform="translate(149,-2.51)"
       x1="415"
       y1="439"
       x2="603"
       y2="439" /><linearGradient
       inkscape:collect="always"
       xlink:href="#linearGradient5568"
       id="linearGradient5570"
       x1="447.7"
       y1="645.70004"
       x2="576.302"
       y2="645.70004"
       gradientUnits="userSpaceOnUse" /><linearGradient
       inkscape:collect="always"
       xlink:href="#linearGradient8598"
       id="linearGradient8600"
       x1="593.7"
       y1="663.70004"
       x2="722.302"
       y2="663.70004"
       gradientUnits="userSpaceOnUse" /><linearGradient
       inkscape:collect="always"
       xlink:href="#linearGradient14533"
       id="linearGradient14535"
       x1="593.7"
       y1="663.70004"
       x2="722.302"
       y2="663.70004"
       gradientUnits="userSpaceOnUse" /></defs></svg>
